%TF.GenerationSoftware,KiCad,Pcbnew,9.0.7*%
%TF.CreationDate,2026-02-08T16:25:54+05:30*%
%TF.ProjectId,gray,67726179-2e6b-4696-9361-645f70636258,rev?*%
%TF.SameCoordinates,Original*%
%TF.FileFunction,Soldermask,Top*%
%TF.FilePolarity,Negative*%
%FSLAX46Y46*%
G04 Gerber Fmt 4.6, Leading zero omitted, Abs format (unit mm)*
G04 Created by KiCad (PCBNEW 9.0.7) date 2026-02-08 16:25:54*
%MOMM*%
%LPD*%
G01*
G04 APERTURE LIST*
G04 Aperture macros list*
%AMRoundRect*
0 Rectangle with rounded corners*
0 $1 Rounding radius*
0 $2 $3 $4 $5 $6 $7 $8 $9 X,Y pos of 4 corners*
0 Add a 4 corners polygon primitive as box body*
4,1,4,$2,$3,$4,$5,$6,$7,$8,$9,$2,$3,0*
0 Add four circle primitives for the rounded corners*
1,1,$1+$1,$2,$3*
1,1,$1+$1,$4,$5*
1,1,$1+$1,$6,$7*
1,1,$1+$1,$8,$9*
0 Add four rect primitives between the rounded corners*
20,1,$1+$1,$2,$3,$4,$5,0*
20,1,$1+$1,$4,$5,$6,$7,0*
20,1,$1+$1,$6,$7,$8,$9,0*
20,1,$1+$1,$8,$9,$2,$3,0*%
G04 Aperture macros list end*
%ADD10R,2.700000X3.600000*%
%ADD11RoundRect,0.075000X-0.662500X-0.075000X0.662500X-0.075000X0.662500X0.075000X-0.662500X0.075000X0*%
%ADD12RoundRect,0.075000X-0.075000X-0.662500X0.075000X-0.662500X0.075000X0.662500X-0.075000X0.662500X0*%
%ADD13RoundRect,0.150000X-0.825000X-0.150000X0.825000X-0.150000X0.825000X0.150000X-0.825000X0.150000X0*%
%ADD14RoundRect,0.150000X-0.512500X-0.150000X0.512500X-0.150000X0.512500X0.150000X-0.512500X0.150000X0*%
%ADD15RoundRect,0.250000X-2.050000X-0.300000X2.050000X-0.300000X2.050000X0.300000X-2.050000X0.300000X0*%
%ADD16RoundRect,0.250002X-4.449998X-5.149998X4.449998X-5.149998X4.449998X5.149998X-4.449998X5.149998X0*%
%ADD17RoundRect,0.250000X-0.262500X-0.450000X0.262500X-0.450000X0.262500X0.450000X-0.262500X0.450000X0*%
%ADD18RoundRect,0.250000X-0.362500X-1.425000X0.362500X-1.425000X0.362500X1.425000X-0.362500X1.425000X0*%
%ADD19R,2.500000X4.500000*%
%ADD20O,2.500000X4.500000*%
%ADD21R,1.905000X2.000000*%
%ADD22O,1.905000X2.000000*%
%ADD23R,1.700000X1.700000*%
%ADD24C,1.700000*%
%ADD25RoundRect,0.250000X-0.375000X-0.625000X0.375000X-0.625000X0.375000X0.625000X-0.375000X0.625000X0*%
%ADD26RoundRect,0.250000X-1.050000X-1.050000X1.050000X-1.050000X1.050000X1.050000X-1.050000X1.050000X0*%
%ADD27C,2.600000*%
%ADD28RoundRect,0.250000X-1.000000X-0.900000X1.000000X-0.900000X1.000000X0.900000X-1.000000X0.900000X0*%
%ADD29RoundRect,0.250000X-1.350000X-1.350000X1.350000X-1.350000X1.350000X1.350000X-1.350000X1.350000X0*%
%ADD30C,3.200000*%
%ADD31RoundRect,0.250000X-0.250000X-0.475000X0.250000X-0.475000X0.250000X0.475000X-0.250000X0.475000X0*%
%ADD32RoundRect,0.250000X-0.750000X-0.750000X0.750000X-0.750000X0.750000X0.750000X-0.750000X0.750000X0*%
%ADD33C,2.000000*%
%ADD34RoundRect,0.375000X-0.625000X-0.375000X0.625000X-0.375000X0.625000X0.375000X-0.625000X0.375000X0*%
%ADD35RoundRect,0.500000X-0.500000X-1.400000X0.500000X-1.400000X0.500000X1.400000X-0.500000X1.400000X0*%
G04 APERTURE END LIST*
D10*
%TO.C,L1*%
X162300000Y-86500000D03*
X154000000Y-86500000D03*
%TD*%
D11*
%TO.C,U5*%
X153587500Y-95400000D03*
X153587500Y-95900000D03*
X153587500Y-96400000D03*
X153587500Y-96900000D03*
X153587500Y-97400000D03*
X153587500Y-97900000D03*
X153587500Y-98400000D03*
X153587500Y-98900000D03*
X153587500Y-99400000D03*
X153587500Y-99900000D03*
X153587500Y-100400000D03*
X153587500Y-100900000D03*
D12*
X155000000Y-102312500D03*
X155500000Y-102312500D03*
X156000000Y-102312500D03*
X156500000Y-102312500D03*
X157000000Y-102312500D03*
X157500000Y-102312500D03*
X158000000Y-102312500D03*
X158500000Y-102312500D03*
X159000000Y-102312500D03*
X159500000Y-102312500D03*
X160000000Y-102312500D03*
X160500000Y-102312500D03*
D11*
X161912500Y-100900000D03*
X161912500Y-100400000D03*
X161912500Y-99900000D03*
X161912500Y-99400000D03*
X161912500Y-98900000D03*
X161912500Y-98400000D03*
X161912500Y-97900000D03*
X161912500Y-97400000D03*
X161912500Y-96900000D03*
X161912500Y-96400000D03*
X161912500Y-95900000D03*
X161912500Y-95400000D03*
D12*
X160500000Y-93987500D03*
X160000000Y-93987500D03*
X159500000Y-93987500D03*
X159000000Y-93987500D03*
X158500000Y-93987500D03*
X158000000Y-93987500D03*
X157500000Y-93987500D03*
X157000000Y-93987500D03*
X156500000Y-93987500D03*
X156000000Y-93987500D03*
X155500000Y-93987500D03*
X155000000Y-93987500D03*
%TD*%
D13*
%TO.C,U4*%
X166375000Y-81980000D03*
X166375000Y-83250000D03*
X166375000Y-84520000D03*
X166375000Y-85790000D03*
X171325000Y-85790000D03*
X171325000Y-84520000D03*
X171325000Y-83250000D03*
X171325000Y-81980000D03*
%TD*%
D14*
%TO.C,U3*%
X171102500Y-75775000D03*
X171102500Y-76725000D03*
X171102500Y-77675000D03*
X173377500Y-77675000D03*
X173377500Y-75775000D03*
%TD*%
D15*
%TO.C,U1*%
X137450000Y-83300000D03*
X137450000Y-85000000D03*
X137450000Y-86700000D03*
D16*
X146600000Y-86700000D03*
D15*
X137450000Y-88400000D03*
X137450000Y-90100000D03*
%TD*%
D17*
%TO.C,TH6*%
X144487500Y-70200000D03*
X146312500Y-70200000D03*
%TD*%
%TO.C,TH5*%
X144487500Y-67250000D03*
X146312500Y-67250000D03*
%TD*%
%TO.C,TH4*%
X144487500Y-64300000D03*
X146312500Y-64300000D03*
%TD*%
%TO.C,TH3*%
X140077500Y-79050000D03*
X141902500Y-79050000D03*
%TD*%
%TO.C,TH2*%
X140077500Y-76100000D03*
X141902500Y-76100000D03*
%TD*%
%TO.C,TH1*%
X140077500Y-73150000D03*
X141902500Y-73150000D03*
%TD*%
%TO.C,R23*%
X140077500Y-70200000D03*
X141902500Y-70200000D03*
%TD*%
%TO.C,R17*%
X140077500Y-67250000D03*
X141902500Y-67250000D03*
%TD*%
D18*
%TO.C,R10*%
X162347500Y-76780000D03*
X168272500Y-76780000D03*
%TD*%
D17*
%TO.C,R9*%
X140077500Y-64300000D03*
X141902500Y-64300000D03*
%TD*%
%TO.C,R8*%
X135667500Y-79050000D03*
X137492500Y-79050000D03*
%TD*%
%TO.C,R7*%
X135667500Y-76100000D03*
X137492500Y-76100000D03*
%TD*%
%TO.C,R6*%
X135667500Y-73150000D03*
X137492500Y-73150000D03*
%TD*%
%TO.C,R5*%
X135667500Y-70200000D03*
X137492500Y-70200000D03*
%TD*%
%TO.C,R4*%
X135667500Y-67250000D03*
X137492500Y-67250000D03*
%TD*%
%TO.C,R1*%
X135667500Y-64300000D03*
X137492500Y-64300000D03*
%TD*%
D19*
%TO.C,Q2*%
X137650000Y-108100000D03*
D20*
X143100000Y-108100000D03*
X148550000Y-108100000D03*
%TD*%
D21*
%TO.C,Q1*%
X164190000Y-66750000D03*
D22*
X166730000Y-66750000D03*
X169270000Y-66750000D03*
%TD*%
D23*
%TO.C,J1*%
X124860000Y-88230000D03*
D24*
X127400000Y-88230000D03*
X124860000Y-90770000D03*
X127400000Y-90770000D03*
X124860000Y-93310000D03*
X127400000Y-93310000D03*
X124860000Y-95850000D03*
X127400000Y-95850000D03*
X124860000Y-98390000D03*
X127400000Y-98390000D03*
X124860000Y-100930000D03*
X127400000Y-100930000D03*
X124860000Y-103470000D03*
X127400000Y-103470000D03*
%TD*%
D25*
%TO.C,F1*%
X170750000Y-70430000D03*
X173550000Y-70430000D03*
%TD*%
D26*
%TO.C,DC_input_40V1*%
X137940000Y-99110000D03*
D27*
X143020000Y-99110000D03*
%TD*%
D28*
%TO.C,D3*%
X163025000Y-71550000D03*
X167325000Y-71550000D03*
%TD*%
D29*
%TO.C,D1*%
X154450000Y-107200000D03*
D30*
X169690000Y-107200000D03*
%TD*%
D31*
%TO.C,C23*%
X157780000Y-73360000D03*
X159680000Y-73360000D03*
%TD*%
%TO.C,C19*%
X157780000Y-70350000D03*
X159680000Y-70350000D03*
%TD*%
%TO.C,C18*%
X157780000Y-67340000D03*
X159680000Y-67340000D03*
%TD*%
%TO.C,C17*%
X157780000Y-64330000D03*
X159680000Y-64330000D03*
%TD*%
%TO.C,C16*%
X153330000Y-76370000D03*
X155230000Y-76370000D03*
%TD*%
%TO.C,C15*%
X153330000Y-73360000D03*
X155230000Y-73360000D03*
%TD*%
%TO.C,C14*%
X153330000Y-70350000D03*
X155230000Y-70350000D03*
%TD*%
%TO.C,C13*%
X153330000Y-67340000D03*
X155230000Y-67340000D03*
%TD*%
%TO.C,C11*%
X153330000Y-64330000D03*
X155230000Y-64330000D03*
%TD*%
%TO.C,C7*%
X148880000Y-76370000D03*
X150780000Y-76370000D03*
%TD*%
%TO.C,C6*%
X148880000Y-73360000D03*
X150780000Y-73360000D03*
%TD*%
%TO.C,C5*%
X148880000Y-70350000D03*
X150780000Y-70350000D03*
%TD*%
D32*
%TO.C,C4*%
X126104646Y-80150000D03*
D33*
X131104646Y-80150000D03*
%TD*%
D31*
%TO.C,C3*%
X148880000Y-67340000D03*
X150780000Y-67340000D03*
%TD*%
%TO.C,C2*%
X148880000Y-64330000D03*
X150780000Y-64330000D03*
%TD*%
D32*
%TO.C,C1*%
X126104646Y-68600000D03*
D33*
X131104646Y-68600000D03*
%TD*%
D34*
%TO.C,U2*%
X165200000Y-94375000D03*
X165200000Y-96675000D03*
D35*
X171500000Y-96675000D03*
D34*
X165200000Y-98975000D03*
%TD*%
M02*
