%TF.GenerationSoftware,KiCad,Pcbnew,9.0.7*%
%TF.CreationDate,2026-02-08T16:25:53+05:30*%
%TF.ProjectId,gray,67726179-2e6b-4696-9361-645f70636258,rev?*%
%TF.SameCoordinates,Original*%
%TF.FileFunction,Copper,L1,Top*%
%TF.FilePolarity,Positive*%
%FSLAX46Y46*%
G04 Gerber Fmt 4.6, Leading zero omitted, Abs format (unit mm)*
G04 Created by KiCad (PCBNEW 9.0.7) date 2026-02-08 16:25:53*
%MOMM*%
%LPD*%
G01*
G04 APERTURE LIST*
G04 Aperture macros list*
%AMRoundRect*
0 Rectangle with rounded corners*
0 $1 Rounding radius*
0 $2 $3 $4 $5 $6 $7 $8 $9 X,Y pos of 4 corners*
0 Add a 4 corners polygon primitive as box body*
4,1,4,$2,$3,$4,$5,$6,$7,$8,$9,$2,$3,0*
0 Add four circle primitives for the rounded corners*
1,1,$1+$1,$2,$3*
1,1,$1+$1,$4,$5*
1,1,$1+$1,$6,$7*
1,1,$1+$1,$8,$9*
0 Add four rect primitives between the rounded corners*
20,1,$1+$1,$2,$3,$4,$5,0*
20,1,$1+$1,$4,$5,$6,$7,0*
20,1,$1+$1,$6,$7,$8,$9,0*
20,1,$1+$1,$8,$9,$2,$3,0*%
G04 Aperture macros list end*
%TA.AperFunction,SMDPad,CuDef*%
%ADD10R,2.700000X3.600000*%
%TD*%
%TA.AperFunction,SMDPad,CuDef*%
%ADD11RoundRect,0.075000X-0.662500X-0.075000X0.662500X-0.075000X0.662500X0.075000X-0.662500X0.075000X0*%
%TD*%
%TA.AperFunction,SMDPad,CuDef*%
%ADD12RoundRect,0.075000X-0.075000X-0.662500X0.075000X-0.662500X0.075000X0.662500X-0.075000X0.662500X0*%
%TD*%
%TA.AperFunction,SMDPad,CuDef*%
%ADD13RoundRect,0.150000X-0.825000X-0.150000X0.825000X-0.150000X0.825000X0.150000X-0.825000X0.150000X0*%
%TD*%
%TA.AperFunction,SMDPad,CuDef*%
%ADD14RoundRect,0.150000X-0.512500X-0.150000X0.512500X-0.150000X0.512500X0.150000X-0.512500X0.150000X0*%
%TD*%
%TA.AperFunction,SMDPad,CuDef*%
%ADD15RoundRect,0.250000X-2.050000X-0.300000X2.050000X-0.300000X2.050000X0.300000X-2.050000X0.300000X0*%
%TD*%
%TA.AperFunction,SMDPad,CuDef*%
%ADD16RoundRect,0.250002X-4.449998X-5.149998X4.449998X-5.149998X4.449998X5.149998X-4.449998X5.149998X0*%
%TD*%
%TA.AperFunction,SMDPad,CuDef*%
%ADD17RoundRect,0.250000X-0.262500X-0.450000X0.262500X-0.450000X0.262500X0.450000X-0.262500X0.450000X0*%
%TD*%
%TA.AperFunction,SMDPad,CuDef*%
%ADD18RoundRect,0.250000X-0.362500X-1.425000X0.362500X-1.425000X0.362500X1.425000X-0.362500X1.425000X0*%
%TD*%
%TA.AperFunction,ComponentPad*%
%ADD19R,2.500000X4.500000*%
%TD*%
%TA.AperFunction,ComponentPad*%
%ADD20O,2.500000X4.500000*%
%TD*%
%TA.AperFunction,ComponentPad*%
%ADD21R,1.905000X2.000000*%
%TD*%
%TA.AperFunction,ComponentPad*%
%ADD22O,1.905000X2.000000*%
%TD*%
%TA.AperFunction,ComponentPad*%
%ADD23R,1.700000X1.700000*%
%TD*%
%TA.AperFunction,ComponentPad*%
%ADD24C,1.700000*%
%TD*%
%TA.AperFunction,SMDPad,CuDef*%
%ADD25RoundRect,0.250000X-0.375000X-0.625000X0.375000X-0.625000X0.375000X0.625000X-0.375000X0.625000X0*%
%TD*%
%TA.AperFunction,ComponentPad*%
%ADD26RoundRect,0.250000X-1.050000X-1.050000X1.050000X-1.050000X1.050000X1.050000X-1.050000X1.050000X0*%
%TD*%
%TA.AperFunction,ComponentPad*%
%ADD27C,2.600000*%
%TD*%
%TA.AperFunction,SMDPad,CuDef*%
%ADD28RoundRect,0.250000X-1.000000X-0.900000X1.000000X-0.900000X1.000000X0.900000X-1.000000X0.900000X0*%
%TD*%
%TA.AperFunction,ComponentPad*%
%ADD29RoundRect,0.250000X-1.350000X-1.350000X1.350000X-1.350000X1.350000X1.350000X-1.350000X1.350000X0*%
%TD*%
%TA.AperFunction,ComponentPad*%
%ADD30C,3.200000*%
%TD*%
%TA.AperFunction,SMDPad,CuDef*%
%ADD31RoundRect,0.250000X-0.250000X-0.475000X0.250000X-0.475000X0.250000X0.475000X-0.250000X0.475000X0*%
%TD*%
%TA.AperFunction,ComponentPad*%
%ADD32RoundRect,0.250000X-0.750000X-0.750000X0.750000X-0.750000X0.750000X0.750000X-0.750000X0.750000X0*%
%TD*%
%TA.AperFunction,ComponentPad*%
%ADD33C,2.000000*%
%TD*%
%TA.AperFunction,SMDPad,CuDef*%
%ADD34RoundRect,0.375000X-0.625000X-0.375000X0.625000X-0.375000X0.625000X0.375000X-0.625000X0.375000X0*%
%TD*%
%TA.AperFunction,SMDPad,CuDef*%
%ADD35RoundRect,0.500000X-0.500000X-1.400000X0.500000X-1.400000X0.500000X1.400000X-0.500000X1.400000X0*%
%TD*%
G04 APERTURE END LIST*
D10*
%TO.P,L1,2,2*%
%TO.N,/+12V*%
X162300000Y-86500000D03*
%TO.P,L1,1,1*%
%TO.N,Net-(D1-A)*%
X154000000Y-86500000D03*
%TD*%
D11*
%TO.P,U5,1,VBAT*%
%TO.N,unconnected-(U5-VBAT-Pad1)*%
X153587500Y-95400000D03*
%TO.P,U5,2,PC13*%
%TO.N,Net-(J1-JTMS{slash}SWDIO)*%
X153587500Y-95900000D03*
%TO.P,U5,3,PC14*%
%TO.N,Net-(J1-JCLK{slash}SWCLK)*%
X153587500Y-96400000D03*
%TO.P,U5,4,PC15*%
%TO.N,unconnected-(U5-PC15-Pad4)*%
X153587500Y-96900000D03*
%TO.P,U5,5,PD0*%
%TO.N,unconnected-(U5-PD0-Pad5)*%
X153587500Y-97400000D03*
%TO.P,U5,6,PD1*%
%TO.N,unconnected-(U5-PD1-Pad6)*%
X153587500Y-97900000D03*
%TO.P,U5,7,NRST*%
%TO.N,Net-(U5-NRST)*%
X153587500Y-98400000D03*
%TO.P,U5,8,VSSA*%
%TO.N,GND*%
X153587500Y-98900000D03*
%TO.P,U5,9,VDDA*%
%TO.N,unconnected-(U5-VDDA-Pad9)*%
X153587500Y-99400000D03*
%TO.P,U5,10,PA0*%
%TO.N,Net-(U5-PA0)*%
X153587500Y-99900000D03*
%TO.P,U5,11,PA1*%
%TO.N,Net-(U5-PA1)*%
X153587500Y-100400000D03*
%TO.P,U5,12,PA2*%
%TO.N,Net-(U5-PA2)*%
X153587500Y-100900000D03*
D12*
%TO.P,U5,13,PA3*%
%TO.N,Net-(U5-PA3)*%
X155000000Y-102312500D03*
%TO.P,U5,14,PA4*%
%TO.N,Net-(U5-PA4)*%
X155500000Y-102312500D03*
%TO.P,U5,15,PA5*%
%TO.N,Net-(U5-PA5)*%
X156000000Y-102312500D03*
%TO.P,U5,16,PA6*%
%TO.N,Net-(U5-PA6)*%
X156500000Y-102312500D03*
%TO.P,U5,17,PA7*%
%TO.N,unconnected-(U5-PA7-Pad17)*%
X157000000Y-102312500D03*
%TO.P,U5,18,PB0*%
%TO.N,unconnected-(U5-PB0-Pad18)*%
X157500000Y-102312500D03*
%TO.P,U5,19,PB1*%
%TO.N,unconnected-(U5-PB1-Pad19)*%
X158000000Y-102312500D03*
%TO.P,U5,20,PB2*%
%TO.N,unconnected-(U5-PB2-Pad20)*%
X158500000Y-102312500D03*
%TO.P,U5,21,PB10*%
%TO.N,unconnected-(U5-PB10-Pad21)*%
X159000000Y-102312500D03*
%TO.P,U5,22,PB11*%
%TO.N,unconnected-(U5-PB11-Pad22)*%
X159500000Y-102312500D03*
%TO.P,U5,23,VSS*%
%TO.N,GND*%
X160000000Y-102312500D03*
%TO.P,U5,24,VDD*%
%TO.N,/+3V3*%
X160500000Y-102312500D03*
D11*
%TO.P,U5,25,PB12*%
%TO.N,unconnected-(U5-PB12-Pad25)*%
X161912500Y-100900000D03*
%TO.P,U5,26,PB13*%
%TO.N,unconnected-(U5-PB13-Pad26)*%
X161912500Y-100400000D03*
%TO.P,U5,27,PB14*%
%TO.N,unconnected-(U5-PB14-Pad27)*%
X161912500Y-99900000D03*
%TO.P,U5,28,PB15*%
%TO.N,unconnected-(U5-PB15-Pad28)*%
X161912500Y-99400000D03*
%TO.P,U5,29,PA8*%
%TO.N,Net-(U4-IN_A)*%
X161912500Y-98900000D03*
%TO.P,U5,30,PA9*%
%TO.N,unconnected-(U5-PA9-Pad30)*%
X161912500Y-98400000D03*
%TO.P,U5,31,PA10*%
%TO.N,unconnected-(U5-PA10-Pad31)*%
X161912500Y-97900000D03*
%TO.P,U5,32,PA11*%
%TO.N,unconnected-(U5-PA11-Pad32)*%
X161912500Y-97400000D03*
%TO.P,U5,33,PA12*%
%TO.N,unconnected-(U5-PA12-Pad33)*%
X161912500Y-96900000D03*
%TO.P,U5,34,PA13*%
%TO.N,unconnected-(U5-PA13-Pad34)*%
X161912500Y-96400000D03*
%TO.P,U5,35,VSS*%
%TO.N,GND*%
X161912500Y-95900000D03*
%TO.P,U5,36,VDD*%
%TO.N,/+3V3*%
X161912500Y-95400000D03*
D12*
%TO.P,U5,37,PA14*%
%TO.N,unconnected-(U5-PA14-Pad37)*%
X160500000Y-93987500D03*
%TO.P,U5,38,PA15*%
%TO.N,unconnected-(U5-PA15-Pad38)*%
X160000000Y-93987500D03*
%TO.P,U5,39,PB3*%
%TO.N,unconnected-(U5-PB3-Pad39)*%
X159500000Y-93987500D03*
%TO.P,U5,40,PB4*%
%TO.N,unconnected-(U5-PB4-Pad40)*%
X159000000Y-93987500D03*
%TO.P,U5,41,PB5*%
%TO.N,unconnected-(U5-PB5-Pad41)*%
X158500000Y-93987500D03*
%TO.P,U5,42,PB6*%
%TO.N,unconnected-(U5-PB6-Pad42)*%
X158000000Y-93987500D03*
%TO.P,U5,43,PB7*%
%TO.N,unconnected-(U5-PB7-Pad43)*%
X157500000Y-93987500D03*
%TO.P,U5,44,BOOT0*%
%TO.N,unconnected-(U5-BOOT0-Pad44)*%
X157000000Y-93987500D03*
%TO.P,U5,45,PB8*%
%TO.N,unconnected-(U5-PB8-Pad45)*%
X156500000Y-93987500D03*
%TO.P,U5,46,PB9*%
%TO.N,unconnected-(U5-PB9-Pad46)*%
X156000000Y-93987500D03*
%TO.P,U5,47,VSS*%
%TO.N,GND*%
X155500000Y-93987500D03*
%TO.P,U5,48,VDD*%
%TO.N,/+3V3*%
X155000000Y-93987500D03*
%TD*%
D13*
%TO.P,U4,1,NC*%
%TO.N,unconnected-(U4-NC-Pad1)*%
X166375000Y-81980000D03*
%TO.P,U4,2,IN_A*%
%TO.N,Net-(U4-IN_A)*%
X166375000Y-83250000D03*
%TO.P,U4,3,GND*%
%TO.N,GND*%
X166375000Y-84520000D03*
%TO.P,U4,4,IN_B*%
%TO.N,unconnected-(U4-IN_B-Pad4)*%
X166375000Y-85790000D03*
%TO.P,U4,5,OUT_B*%
%TO.N,unconnected-(U4-OUT_B-Pad5)*%
X171325000Y-85790000D03*
%TO.P,U4,6,V_{DD}*%
%TO.N,/+12V*%
X171325000Y-84520000D03*
%TO.P,U4,7,OUT_A*%
%TO.N,Net-(U4-OUT_A)*%
X171325000Y-83250000D03*
%TO.P,U4,8,NC*%
%TO.N,unconnected-(U4-NC-Pad8)*%
X171325000Y-81980000D03*
%TD*%
D14*
%TO.P,U3,1*%
%TO.N,Net-(U5-PA6)*%
X171102500Y-75775000D03*
%TO.P,U3,2,GND*%
%TO.N,GND*%
X171102500Y-76725000D03*
%TO.P,U3,3,+*%
%TO.N,Net-(U3-+)*%
X171102500Y-77675000D03*
%TO.P,U3,4,-*%
%TO.N,Net-(U3--)*%
X173377500Y-77675000D03*
%TO.P,U3,5,V+*%
%TO.N,unconnected-(U3-V+-Pad5)*%
X173377500Y-75775000D03*
%TD*%
D15*
%TO.P,U1,1,VIN*%
%TO.N,Net-(D3-A1)*%
X137450000Y-83300000D03*
%TO.P,U1,2,OUT*%
%TO.N,Net-(D1-A)*%
X137450000Y-85000000D03*
%TO.P,U1,3,GND*%
%TO.N,GND*%
X137450000Y-86700000D03*
D16*
X146600000Y-86700000D03*
D15*
%TO.P,U1,4,FB*%
%TO.N,unconnected-(U1-FB-Pad4)*%
X137450000Y-88400000D03*
%TO.P,U1,5,~{ON}/OFF*%
%TO.N,unconnected-(U1-~{ON}{slash}OFF-Pad5)*%
X137450000Y-90100000D03*
%TD*%
D17*
%TO.P,TH6,1*%
%TO.N,Net-(U5-PA5)*%
X144487500Y-70200000D03*
%TO.P,TH6,2*%
%TO.N,GND*%
X146312500Y-70200000D03*
%TD*%
%TO.P,TH5,1*%
%TO.N,Net-(U5-PA4)*%
X144487500Y-67250000D03*
%TO.P,TH5,2*%
%TO.N,GND*%
X146312500Y-67250000D03*
%TD*%
%TO.P,TH4,1*%
%TO.N,Net-(U5-PA3)*%
X144487500Y-64300000D03*
%TO.P,TH4,2*%
%TO.N,GND*%
X146312500Y-64300000D03*
%TD*%
%TO.P,TH3,1*%
%TO.N,Net-(U5-PA2)*%
X140077500Y-79050000D03*
%TO.P,TH3,2*%
%TO.N,GND*%
X141902500Y-79050000D03*
%TD*%
%TO.P,TH2,1*%
%TO.N,Net-(U5-PA1)*%
X140077500Y-76100000D03*
%TO.P,TH2,2*%
%TO.N,GND*%
X141902500Y-76100000D03*
%TD*%
%TO.P,TH1,1*%
%TO.N,Net-(U5-PA0)*%
X140077500Y-73150000D03*
%TO.P,TH1,2*%
%TO.N,GND*%
X141902500Y-73150000D03*
%TD*%
%TO.P,R23,1*%
%TO.N,Net-(Q2-G)*%
X140077500Y-70200000D03*
%TO.P,R23,2*%
%TO.N,GND*%
X141902500Y-70200000D03*
%TD*%
%TO.P,R17,1*%
%TO.N,Net-(U4-OUT_A)*%
X140077500Y-67250000D03*
%TO.P,R17,2*%
%TO.N,Net-(Q2-G)*%
X141902500Y-67250000D03*
%TD*%
D18*
%TO.P,R10,1*%
%TO.N,Net-(Q2-S)*%
X162347500Y-76780000D03*
%TO.P,R10,2*%
%TO.N,Net-(U3-+)*%
X168272500Y-76780000D03*
%TD*%
D17*
%TO.P,R9,1*%
%TO.N,/+3V3*%
X140077500Y-64300000D03*
%TO.P,R9,2*%
%TO.N,Net-(U5-PA5)*%
X141902500Y-64300000D03*
%TD*%
%TO.P,R8,1*%
%TO.N,/+3V3*%
X135667500Y-79050000D03*
%TO.P,R8,2*%
%TO.N,Net-(U5-PA3)*%
X137492500Y-79050000D03*
%TD*%
%TO.P,R7,1*%
%TO.N,/+3V3*%
X135667500Y-76100000D03*
%TO.P,R7,2*%
%TO.N,Net-(U5-PA1)*%
X137492500Y-76100000D03*
%TD*%
%TO.P,R6,1*%
%TO.N,/+3V3*%
X135667500Y-73150000D03*
%TO.P,R6,2*%
%TO.N,Net-(U5-PA4)*%
X137492500Y-73150000D03*
%TD*%
%TO.P,R5,1*%
%TO.N,/+3V3*%
X135667500Y-70200000D03*
%TO.P,R5,2*%
%TO.N,Net-(U5-PA2)*%
X137492500Y-70200000D03*
%TD*%
%TO.P,R4,1*%
%TO.N,/+3V3*%
X135667500Y-67250000D03*
%TO.P,R4,2*%
%TO.N,Net-(U5-PA0)*%
X137492500Y-67250000D03*
%TD*%
%TO.P,R1,1*%
%TO.N,Net-(U5-NRST)*%
X135667500Y-64300000D03*
%TO.P,R1,2*%
%TO.N,Net-(J1-~{RST})*%
X137492500Y-64300000D03*
%TD*%
D19*
%TO.P,Q2,1,G*%
%TO.N,Net-(Q2-G)*%
X137650000Y-108100000D03*
D20*
%TO.P,Q2,2,D*%
%TO.N,unconnected-(Q2-D-Pad2)*%
X143100000Y-108100000D03*
%TO.P,Q2,3,S*%
%TO.N,Net-(Q2-S)*%
X148550000Y-108100000D03*
%TD*%
D21*
%TO.P,Q1,1,G*%
%TO.N,unconnected-(Q1-G-Pad1)*%
X164190000Y-66750000D03*
D22*
%TO.P,Q1,2,D*%
%TO.N,Net-(Q1-D)*%
X166730000Y-66750000D03*
%TO.P,Q1,3,S*%
%TO.N,Net-(D3-A1)*%
X169270000Y-66750000D03*
%TD*%
D23*
%TO.P,J1,1,NC*%
%TO.N,unconnected-(J1-NC-Pad1)*%
X124860000Y-88230000D03*
D24*
%TO.P,J1,2,NC*%
%TO.N,unconnected-(J1-NC-Pad2)*%
X127400000Y-88230000D03*
%TO.P,J1,3,VCC*%
%TO.N,/+3V3*%
X124860000Y-90770000D03*
%TO.P,J1,4,JTMS/SWDIO*%
%TO.N,Net-(J1-JTMS{slash}SWDIO)*%
X127400000Y-90770000D03*
%TO.P,J1,5,GND*%
%TO.N,GND*%
X124860000Y-93310000D03*
%TO.P,J1,6,JCLK/SWCLK*%
%TO.N,Net-(J1-JCLK{slash}SWCLK)*%
X127400000Y-93310000D03*
%TO.P,J1,7,GND*%
%TO.N,GND*%
X124860000Y-95850000D03*
%TO.P,J1,8,JTDO/SWO*%
%TO.N,unconnected-(J1-JTDO{slash}SWO-Pad8)*%
X127400000Y-95850000D03*
%TO.P,J1,9,JRCLK/NC*%
%TO.N,unconnected-(J1-JRCLK{slash}NC-Pad9)*%
X124860000Y-98390000D03*
%TO.P,J1,10,JTDI/NC*%
%TO.N,unconnected-(J1-JTDI{slash}NC-Pad10)*%
X127400000Y-98390000D03*
%TO.P,J1,11,GNDDetect*%
%TO.N,unconnected-(J1-GNDDetect-Pad11)*%
X124860000Y-100930000D03*
%TO.P,J1,12,~{RST}*%
%TO.N,Net-(J1-~{RST})*%
X127400000Y-100930000D03*
%TO.P,J1,13,VCP_RX*%
%TO.N,unconnected-(J1-VCP_RX-Pad13)*%
X124860000Y-103470000D03*
%TO.P,J1,14,VCP_TX*%
%TO.N,unconnected-(J1-VCP_TX-Pad14)*%
X127400000Y-103470000D03*
%TD*%
D25*
%TO.P,F1,1*%
%TO.N,Net-(DC_input_40V1-Pin_1)*%
X170750000Y-70430000D03*
%TO.P,F1,2*%
%TO.N,Net-(Q1-D)*%
X173550000Y-70430000D03*
%TD*%
D26*
%TO.P,DC_input_40V1,1,Pin_1*%
%TO.N,Net-(DC_input_40V1-Pin_1)*%
X137940000Y-99110000D03*
D27*
%TO.P,DC_input_40V1,2,Pin_2*%
%TO.N,GND*%
X143020000Y-99110000D03*
%TD*%
D28*
%TO.P,D3,1,A1*%
%TO.N,Net-(D3-A1)*%
X163025000Y-71550000D03*
%TO.P,D3,2,A2*%
%TO.N,GND*%
X167325000Y-71550000D03*
%TD*%
D29*
%TO.P,D1,1,K*%
%TO.N,GND*%
X154450000Y-107200000D03*
D30*
%TO.P,D1,2,A*%
%TO.N,Net-(D1-A)*%
X169690000Y-107200000D03*
%TD*%
D31*
%TO.P,C23,1*%
%TO.N,/+3V3*%
X157780000Y-73360000D03*
%TO.P,C23,2*%
%TO.N,GND*%
X159680000Y-73360000D03*
%TD*%
%TO.P,C19,1*%
%TO.N,Net-(U5-PA5)*%
X157780000Y-70350000D03*
%TO.P,C19,2*%
%TO.N,GND*%
X159680000Y-70350000D03*
%TD*%
%TO.P,C18,1*%
%TO.N,Net-(U5-PA3)*%
X157780000Y-67340000D03*
%TO.P,C18,2*%
%TO.N,GND*%
X159680000Y-67340000D03*
%TD*%
%TO.P,C17,1*%
%TO.N,Net-(U5-PA2)*%
X157780000Y-64330000D03*
%TO.P,C17,2*%
%TO.N,GND*%
X159680000Y-64330000D03*
%TD*%
%TO.P,C16,1*%
%TO.N,Net-(U5-PA4)*%
X153330000Y-76370000D03*
%TO.P,C16,2*%
%TO.N,GND*%
X155230000Y-76370000D03*
%TD*%
%TO.P,C15,1*%
%TO.N,Net-(U5-PA1)*%
X153330000Y-73360000D03*
%TO.P,C15,2*%
%TO.N,GND*%
X155230000Y-73360000D03*
%TD*%
%TO.P,C14,1*%
%TO.N,Net-(U5-PA0)*%
X153330000Y-70350000D03*
%TO.P,C14,2*%
%TO.N,GND*%
X155230000Y-70350000D03*
%TD*%
%TO.P,C13,1*%
%TO.N,/+3V3*%
X153330000Y-67340000D03*
%TO.P,C13,2*%
%TO.N,GND*%
X155230000Y-67340000D03*
%TD*%
%TO.P,C11,1*%
%TO.N,Net-(D3-A1)*%
X153330000Y-64330000D03*
%TO.P,C11,2*%
%TO.N,GND*%
X155230000Y-64330000D03*
%TD*%
%TO.P,C7,1*%
%TO.N,/+3V3*%
X148880000Y-76370000D03*
%TO.P,C7,2*%
%TO.N,GND*%
X150780000Y-76370000D03*
%TD*%
%TO.P,C6,1*%
%TO.N,/+3V3*%
X148880000Y-73360000D03*
%TO.P,C6,2*%
%TO.N,GND*%
X150780000Y-73360000D03*
%TD*%
%TO.P,C5,1*%
%TO.N,/+12V*%
X148880000Y-70350000D03*
%TO.P,C5,2*%
%TO.N,GND*%
X150780000Y-70350000D03*
%TD*%
D32*
%TO.P,C4,1*%
%TO.N,Net-(D3-A1)*%
X126104646Y-80150000D03*
D33*
%TO.P,C4,2*%
%TO.N,GND*%
X131104646Y-80150000D03*
%TD*%
D31*
%TO.P,C3,1*%
%TO.N,/+12V*%
X148880000Y-67340000D03*
%TO.P,C3,2*%
%TO.N,GND*%
X150780000Y-67340000D03*
%TD*%
%TO.P,C2,1*%
%TO.N,/+3V3*%
X148880000Y-64330000D03*
%TO.P,C2,2*%
%TO.N,GND*%
X150780000Y-64330000D03*
%TD*%
D32*
%TO.P,C1,1*%
%TO.N,Net-(D3-A1)*%
X126104646Y-68600000D03*
D33*
%TO.P,C1,2*%
%TO.N,GND*%
X131104646Y-68600000D03*
%TD*%
D34*
%TO.P,U2,1,GND*%
%TO.N,GND*%
X165200000Y-94375000D03*
%TO.P,U2,2,VO*%
%TO.N,/+3V3*%
X165200000Y-96675000D03*
D35*
X171500000Y-96675000D03*
D34*
%TO.P,U2,3,VI*%
X165200000Y-98975000D03*
%TD*%
%TA.AperFunction,NonConductor*%
G36*
X145443039Y-94019685D02*
G01*
X145488794Y-94072489D01*
X145500000Y-94124000D01*
X145500000Y-103381763D01*
X145480315Y-103448802D01*
X145427511Y-103494557D01*
X145381898Y-103505623D01*
X135136570Y-103993496D01*
X135068670Y-103977022D01*
X135020455Y-103926454D01*
X135006827Y-103863447D01*
X135299501Y-98009983D01*
X136139500Y-98009983D01*
X136139500Y-100210001D01*
X136139501Y-100210018D01*
X136150000Y-100312796D01*
X136150001Y-100312799D01*
X136200962Y-100466587D01*
X136205186Y-100479334D01*
X136297288Y-100628656D01*
X136421344Y-100752712D01*
X136570666Y-100844814D01*
X136737203Y-100899999D01*
X136839991Y-100910500D01*
X139040008Y-100910499D01*
X139142797Y-100899999D01*
X139309334Y-100844814D01*
X139458656Y-100752712D01*
X139582712Y-100628656D01*
X139674814Y-100479334D01*
X139729999Y-100312797D01*
X139740500Y-100210009D01*
X139740499Y-98991995D01*
X141219500Y-98991995D01*
X141219500Y-99228004D01*
X141219501Y-99228020D01*
X141250306Y-99462010D01*
X141311394Y-99689993D01*
X141401714Y-99908045D01*
X141401719Y-99908056D01*
X141472677Y-100030957D01*
X141519727Y-100112450D01*
X141519729Y-100112453D01*
X141519730Y-100112454D01*
X141663406Y-100299697D01*
X141663412Y-100299704D01*
X141830295Y-100466587D01*
X141830302Y-100466593D01*
X141846909Y-100479336D01*
X142017550Y-100610273D01*
X142148918Y-100686118D01*
X142221943Y-100728280D01*
X142221948Y-100728282D01*
X142221951Y-100728284D01*
X142440007Y-100818606D01*
X142667986Y-100879693D01*
X142901989Y-100910500D01*
X142901996Y-100910500D01*
X143138004Y-100910500D01*
X143138011Y-100910500D01*
X143372014Y-100879693D01*
X143599993Y-100818606D01*
X143818049Y-100728284D01*
X144022450Y-100610273D01*
X144209699Y-100466592D01*
X144376592Y-100299699D01*
X144520273Y-100112450D01*
X144638284Y-99908049D01*
X144728606Y-99689993D01*
X144789693Y-99462014D01*
X144820500Y-99228011D01*
X144820500Y-98991989D01*
X144789693Y-98757986D01*
X144728606Y-98530007D01*
X144638284Y-98311951D01*
X144638282Y-98311948D01*
X144638280Y-98311943D01*
X144596118Y-98238918D01*
X144520273Y-98107550D01*
X144376592Y-97920301D01*
X144376587Y-97920295D01*
X144209704Y-97753412D01*
X144209697Y-97753406D01*
X144022454Y-97609730D01*
X144022453Y-97609729D01*
X144022450Y-97609727D01*
X143940957Y-97562677D01*
X143818056Y-97491719D01*
X143818045Y-97491714D01*
X143599993Y-97401394D01*
X143372010Y-97340306D01*
X143138020Y-97309501D01*
X143138017Y-97309500D01*
X143138011Y-97309500D01*
X142901989Y-97309500D01*
X142901983Y-97309500D01*
X142901979Y-97309501D01*
X142667989Y-97340306D01*
X142440006Y-97401394D01*
X142221954Y-97491714D01*
X142221943Y-97491719D01*
X142017545Y-97609730D01*
X141830302Y-97753406D01*
X141830295Y-97753412D01*
X141663412Y-97920295D01*
X141663406Y-97920302D01*
X141519730Y-98107545D01*
X141401719Y-98311943D01*
X141401714Y-98311954D01*
X141311394Y-98530006D01*
X141250306Y-98757989D01*
X141219501Y-98991979D01*
X141219500Y-98991995D01*
X139740499Y-98991995D01*
X139740499Y-98009992D01*
X139729999Y-97907203D01*
X139674814Y-97740666D01*
X139582712Y-97591344D01*
X139458656Y-97467288D01*
X139309334Y-97375186D01*
X139142797Y-97320001D01*
X139142795Y-97320000D01*
X139040010Y-97309500D01*
X136839998Y-97309500D01*
X136839981Y-97309501D01*
X136737203Y-97320000D01*
X136737200Y-97320001D01*
X136570668Y-97375185D01*
X136570663Y-97375187D01*
X136421342Y-97467289D01*
X136297289Y-97591342D01*
X136205187Y-97740663D01*
X136205185Y-97740668D01*
X136200962Y-97753412D01*
X136150001Y-97907203D01*
X136150001Y-97907204D01*
X136150000Y-97907204D01*
X136139500Y-98009983D01*
X135299501Y-98009983D01*
X135304640Y-97907200D01*
X135494110Y-94117808D01*
X135517118Y-94051835D01*
X135572140Y-94008774D01*
X135617955Y-94000000D01*
X145376000Y-94000000D01*
X145443039Y-94019685D01*
G37*
%TD.AperFunction*%
%TA.AperFunction,NonConductor*%
G36*
X167132324Y-75019685D02*
G01*
X167178079Y-75072489D01*
X167188023Y-75141647D01*
X167182993Y-75162994D01*
X167170072Y-75201986D01*
X167170000Y-75202206D01*
X167159500Y-75304983D01*
X167159500Y-78255001D01*
X167159501Y-78255019D01*
X167170573Y-78363399D01*
X167157803Y-78432092D01*
X167109922Y-78482976D01*
X167047215Y-78500000D01*
X163572785Y-78500000D01*
X163505746Y-78480315D01*
X163459991Y-78427511D01*
X163449427Y-78363398D01*
X163460499Y-78255018D01*
X163460500Y-78255009D01*
X163460499Y-75304992D01*
X163449999Y-75202203D01*
X163437010Y-75163004D01*
X163434608Y-75093176D01*
X163470340Y-75033134D01*
X163532860Y-75001941D01*
X163554716Y-75000000D01*
X167065285Y-75000000D01*
X167132324Y-75019685D01*
G37*
%TD.AperFunction*%
%TA.AperFunction,NonConductor*%
G36*
X172381268Y-69519685D02*
G01*
X172427023Y-69572489D01*
X172436967Y-69641647D01*
X172435482Y-69649957D01*
X172435000Y-69652204D01*
X172424500Y-69754983D01*
X172424500Y-71105001D01*
X172424501Y-71105018D01*
X172435000Y-71207796D01*
X172452768Y-71261416D01*
X172477814Y-71336998D01*
X172480216Y-71406824D01*
X172444485Y-71466866D01*
X172381964Y-71498059D01*
X172360108Y-71500000D01*
X171939892Y-71500000D01*
X171872853Y-71480315D01*
X171827098Y-71427511D01*
X171817154Y-71358353D01*
X171822184Y-71337002D01*
X171864999Y-71207797D01*
X171875500Y-71105009D01*
X171875499Y-69754992D01*
X171864999Y-69652203D01*
X171864997Y-69652198D01*
X171864518Y-69649955D01*
X171864624Y-69648534D01*
X171864311Y-69645468D01*
X171864858Y-69645412D01*
X171869734Y-69580280D01*
X171911791Y-69524486D01*
X171977337Y-69500287D01*
X171985771Y-69500000D01*
X172314229Y-69500000D01*
X172381268Y-69519685D01*
G37*
%TD.AperFunction*%
%TA.AperFunction,NonConductor*%
G36*
X168086420Y-67643523D02*
G01*
X168100314Y-67659556D01*
X168161714Y-67744066D01*
X168323434Y-67905786D01*
X168370647Y-67940088D01*
X168385824Y-67951115D01*
X168428489Y-68006446D01*
X168434468Y-68076059D01*
X168401862Y-68137854D01*
X168341023Y-68172211D01*
X168318836Y-68175293D01*
X167649060Y-68207187D01*
X167581160Y-68190713D01*
X167532945Y-68140145D01*
X167519724Y-68071538D01*
X167545693Y-68006674D01*
X167570274Y-67983011D01*
X167676566Y-67905786D01*
X167838286Y-67744066D01*
X167899683Y-67659559D01*
X167955012Y-67616896D01*
X168024625Y-67610917D01*
X168086420Y-67643523D01*
G37*
%TD.AperFunction*%
%TA.AperFunction,NonConductor*%
G36*
X165717568Y-67887054D02*
G01*
X165731303Y-67885169D01*
X165751036Y-67894333D01*
X165772297Y-67898958D01*
X165785746Y-67907465D01*
X165905617Y-67994557D01*
X165968463Y-68040218D01*
X165995481Y-68053984D01*
X166046277Y-68101958D01*
X166063073Y-68169779D01*
X166040536Y-68235914D01*
X165985821Y-68279366D01*
X165945085Y-68288329D01*
X165606144Y-68304469D01*
X165594097Y-68301546D01*
X165581816Y-68303232D01*
X165560781Y-68293463D01*
X165538244Y-68287995D01*
X165529689Y-68279023D01*
X165518447Y-68273802D01*
X165506033Y-68254212D01*
X165490029Y-68237427D01*
X165487683Y-68225255D01*
X165481048Y-68214784D01*
X165481196Y-68191590D01*
X165476808Y-68168820D01*
X165481425Y-68155614D01*
X165481494Y-68144916D01*
X165493457Y-68121206D01*
X165496360Y-68112905D01*
X165499668Y-68107828D01*
X165500046Y-68107546D01*
X165586296Y-67992331D01*
X165601491Y-67951588D01*
X165608987Y-67940088D01*
X165625523Y-67925942D01*
X165638560Y-67908527D01*
X165651546Y-67903682D01*
X165662082Y-67894671D01*
X165683638Y-67891711D01*
X165704023Y-67884108D01*
X165717568Y-67887054D01*
G37*
%TD.AperFunction*%
%TA.AperFunction,NonConductor*%
G36*
X171943039Y-63519685D02*
G01*
X171988794Y-63572489D01*
X172000000Y-63624000D01*
X172000000Y-67881763D01*
X171980315Y-67948802D01*
X171927511Y-67994557D01*
X171881898Y-68005623D01*
X170348846Y-68078625D01*
X170280946Y-68062151D01*
X170232731Y-68011583D01*
X170219510Y-67942976D01*
X170245479Y-67878112D01*
X170255251Y-67867100D01*
X170378286Y-67744066D01*
X170512717Y-67559038D01*
X170616548Y-67355258D01*
X170687222Y-67137745D01*
X170723000Y-66911854D01*
X170723000Y-66588146D01*
X170687222Y-66362255D01*
X170687221Y-66362251D01*
X170687221Y-66362250D01*
X170616549Y-66144744D01*
X170616548Y-66144742D01*
X170512717Y-65940962D01*
X170378286Y-65755934D01*
X170216566Y-65594214D01*
X170031538Y-65459783D01*
X169827755Y-65355950D01*
X169610248Y-65285278D01*
X169424812Y-65255908D01*
X169384354Y-65249500D01*
X169155646Y-65249500D01*
X169115188Y-65255908D01*
X168929753Y-65285278D01*
X168929750Y-65285278D01*
X168712244Y-65355950D01*
X168508461Y-65459783D01*
X168442550Y-65507671D01*
X168323434Y-65594214D01*
X168323432Y-65594216D01*
X168323431Y-65594216D01*
X168161715Y-65755932D01*
X168100318Y-65840438D01*
X168044987Y-65883103D01*
X167975374Y-65889082D01*
X167913579Y-65856476D01*
X167899682Y-65840438D01*
X167888773Y-65825423D01*
X167838286Y-65755934D01*
X167676566Y-65594214D01*
X167491538Y-65459783D01*
X167287755Y-65355950D01*
X167070248Y-65285278D01*
X166884812Y-65255908D01*
X166844354Y-65249500D01*
X166615646Y-65249500D01*
X166575188Y-65255908D01*
X166389753Y-65285278D01*
X166389750Y-65285278D01*
X166172244Y-65355950D01*
X165968461Y-65459783D01*
X165785759Y-65592525D01*
X165719952Y-65616005D01*
X165651898Y-65600180D01*
X165603203Y-65550074D01*
X165596690Y-65535538D01*
X165586296Y-65507669D01*
X165586293Y-65507664D01*
X165500047Y-65392455D01*
X165500044Y-65392452D01*
X165384835Y-65306206D01*
X165384828Y-65306202D01*
X165249982Y-65255908D01*
X165249983Y-65255908D01*
X165190383Y-65249501D01*
X165190381Y-65249500D01*
X165190373Y-65249500D01*
X165190364Y-65249500D01*
X163189629Y-65249500D01*
X163189623Y-65249501D01*
X163130016Y-65255908D01*
X162995171Y-65306202D01*
X162995164Y-65306206D01*
X162879955Y-65392452D01*
X162879952Y-65392455D01*
X162793706Y-65507664D01*
X162793702Y-65507671D01*
X162743408Y-65642517D01*
X162737001Y-65702116D01*
X162737000Y-65702135D01*
X162737000Y-67797870D01*
X162737001Y-67797876D01*
X162743408Y-67857483D01*
X162793702Y-67992328D01*
X162793706Y-67992335D01*
X162879952Y-68107544D01*
X162879955Y-68107547D01*
X162995164Y-68193793D01*
X163002954Y-68198047D01*
X163001211Y-68201237D01*
X163043326Y-68232729D01*
X163067777Y-68298180D01*
X163052962Y-68366461D01*
X163003582Y-68415893D01*
X162949996Y-68430952D01*
X161629898Y-68493814D01*
X161561998Y-68477340D01*
X161513783Y-68426772D01*
X161500000Y-68369954D01*
X161500000Y-63624000D01*
X161519685Y-63556961D01*
X161572489Y-63511206D01*
X161624000Y-63500000D01*
X171876000Y-63500000D01*
X171943039Y-63519685D01*
G37*
%TD.AperFunction*%
%TA.AperFunction,NonConductor*%
G36*
X126378418Y-89125417D02*
G01*
X126406673Y-89146569D01*
X126520213Y-89260109D01*
X126692182Y-89385050D01*
X126700946Y-89389516D01*
X126751742Y-89437491D01*
X126768536Y-89505312D01*
X126745998Y-89571447D01*
X126700946Y-89610484D01*
X126692182Y-89614949D01*
X126520213Y-89739890D01*
X126369890Y-89890213D01*
X126244949Y-90062182D01*
X126240484Y-90070946D01*
X126192509Y-90121742D01*
X126124688Y-90138536D01*
X126058553Y-90115998D01*
X126019516Y-90070946D01*
X126015050Y-90062182D01*
X125890109Y-89890213D01*
X125776569Y-89776673D01*
X125743084Y-89715350D01*
X125748068Y-89645658D01*
X125789940Y-89589725D01*
X125820915Y-89572810D01*
X125952331Y-89523796D01*
X126067546Y-89437546D01*
X126153796Y-89322331D01*
X126202810Y-89190916D01*
X126244681Y-89134984D01*
X126310145Y-89110566D01*
X126378418Y-89125417D01*
G37*
%TD.AperFunction*%
%TA.AperFunction,NonConductor*%
G36*
X128871157Y-88530928D02*
G01*
X128922633Y-88578172D01*
X128940398Y-88645649D01*
X128896496Y-90226120D01*
X128874958Y-90292587D01*
X128820904Y-90336858D01*
X128751496Y-90344878D01*
X128688770Y-90314099D01*
X128654613Y-90260994D01*
X128651556Y-90251586D01*
X128585397Y-90121742D01*
X128555051Y-90062184D01*
X128555049Y-90062181D01*
X128555048Y-90062179D01*
X128430109Y-89890213D01*
X128279786Y-89739890D01*
X128107820Y-89614951D01*
X128107115Y-89614591D01*
X128099054Y-89610485D01*
X128048259Y-89562512D01*
X128031463Y-89494692D01*
X128053999Y-89428556D01*
X128099054Y-89389515D01*
X128107816Y-89385051D01*
X128194138Y-89322335D01*
X128279786Y-89260109D01*
X128279788Y-89260106D01*
X128279792Y-89260104D01*
X128430104Y-89109792D01*
X128430106Y-89109788D01*
X128430109Y-89109786D01*
X128555048Y-88937820D01*
X128555047Y-88937820D01*
X128555051Y-88937816D01*
X128651557Y-88748412D01*
X128698516Y-88603885D01*
X128737952Y-88546213D01*
X128802311Y-88519014D01*
X128871157Y-88530928D01*
G37*
%TD.AperFunction*%
%TA.AperFunction,NonConductor*%
G36*
X126201444Y-91423999D02*
G01*
X126240486Y-91469056D01*
X126244951Y-91477820D01*
X126369890Y-91649786D01*
X126520213Y-91800109D01*
X126692182Y-91925050D01*
X126700946Y-91929516D01*
X126751742Y-91977491D01*
X126768536Y-92045312D01*
X126745998Y-92111447D01*
X126700946Y-92150484D01*
X126692182Y-92154949D01*
X126520213Y-92279890D01*
X126369890Y-92430213D01*
X126244949Y-92602182D01*
X126240484Y-92610946D01*
X126192509Y-92661742D01*
X126124688Y-92678536D01*
X126058553Y-92655998D01*
X126019516Y-92610946D01*
X126015050Y-92602182D01*
X125890109Y-92430213D01*
X125739786Y-92279890D01*
X125567820Y-92154951D01*
X125567115Y-92154591D01*
X125559054Y-92150485D01*
X125508259Y-92102512D01*
X125491463Y-92034692D01*
X125513999Y-91968556D01*
X125559054Y-91929515D01*
X125567816Y-91925051D01*
X125589789Y-91909086D01*
X125739786Y-91800109D01*
X125739788Y-91800106D01*
X125739792Y-91800104D01*
X125890104Y-91649792D01*
X125890106Y-91649788D01*
X125890109Y-91649786D01*
X126015048Y-91477820D01*
X126015047Y-91477820D01*
X126015051Y-91477816D01*
X126019514Y-91469054D01*
X126067488Y-91418259D01*
X126135308Y-91401463D01*
X126201444Y-91423999D01*
G37*
%TD.AperFunction*%
%TA.AperFunction,NonConductor*%
G36*
X128811630Y-91286254D02*
G01*
X128855082Y-91340969D01*
X128864137Y-91391046D01*
X128829766Y-92628383D01*
X128808228Y-92694850D01*
X128754174Y-92739121D01*
X128684766Y-92747141D01*
X128622040Y-92716362D01*
X128595329Y-92681234D01*
X128555050Y-92602182D01*
X128430109Y-92430213D01*
X128279786Y-92279890D01*
X128107820Y-92154951D01*
X128107115Y-92154591D01*
X128099054Y-92150485D01*
X128048259Y-92102512D01*
X128031463Y-92034692D01*
X128053999Y-91968556D01*
X128099054Y-91929515D01*
X128107816Y-91925051D01*
X128129789Y-91909086D01*
X128279786Y-91800109D01*
X128279788Y-91800106D01*
X128279792Y-91800104D01*
X128430104Y-91649792D01*
X128430106Y-91649788D01*
X128430109Y-91649786D01*
X128555048Y-91477820D01*
X128555047Y-91477820D01*
X128555051Y-91477816D01*
X128629700Y-91331307D01*
X128677674Y-91280512D01*
X128745495Y-91263717D01*
X128811630Y-91286254D01*
G37*
%TD.AperFunction*%
%TA.AperFunction,NonConductor*%
G36*
X128736981Y-93972695D02*
G01*
X128780446Y-94027400D01*
X128789512Y-94077504D01*
X128762510Y-95049602D01*
X128740972Y-95116069D01*
X128686918Y-95160340D01*
X128617510Y-95168360D01*
X128554785Y-95137581D01*
X128538240Y-95119044D01*
X128430109Y-94970214D01*
X128430105Y-94970209D01*
X128279786Y-94819890D01*
X128107820Y-94694951D01*
X128107115Y-94694591D01*
X128099054Y-94690485D01*
X128048259Y-94642512D01*
X128031463Y-94574692D01*
X128053999Y-94508556D01*
X128099054Y-94469515D01*
X128107816Y-94465051D01*
X128129789Y-94449086D01*
X128279786Y-94340109D01*
X128279788Y-94340106D01*
X128279792Y-94340104D01*
X128430104Y-94189792D01*
X128430106Y-94189788D01*
X128430109Y-94189786D01*
X128511685Y-94077504D01*
X128555051Y-94017816D01*
X128555063Y-94017790D01*
X128555072Y-94017781D01*
X128557596Y-94013664D01*
X128558459Y-94014193D01*
X128603024Y-93966985D01*
X128670841Y-93950173D01*
X128736981Y-93972695D01*
G37*
%TD.AperFunction*%
%TA.AperFunction,NonConductor*%
G36*
X126201444Y-93963999D02*
G01*
X126240484Y-94009054D01*
X126243103Y-94014193D01*
X126244951Y-94017820D01*
X126369890Y-94189786D01*
X126520213Y-94340109D01*
X126692182Y-94465050D01*
X126700946Y-94469516D01*
X126751742Y-94517491D01*
X126768536Y-94585312D01*
X126745998Y-94651447D01*
X126700946Y-94690484D01*
X126692182Y-94694949D01*
X126520213Y-94819890D01*
X126369890Y-94970213D01*
X126244949Y-95142182D01*
X126240484Y-95150946D01*
X126192509Y-95201742D01*
X126124688Y-95218536D01*
X126058553Y-95195998D01*
X126019516Y-95150946D01*
X126015050Y-95142182D01*
X125890109Y-94970213D01*
X125739786Y-94819890D01*
X125567820Y-94694951D01*
X125567115Y-94694591D01*
X125559054Y-94690485D01*
X125508259Y-94642512D01*
X125491463Y-94574692D01*
X125513999Y-94508556D01*
X125559054Y-94469515D01*
X125567816Y-94465051D01*
X125589789Y-94449086D01*
X125739786Y-94340109D01*
X125739788Y-94340106D01*
X125739792Y-94340104D01*
X125890104Y-94189792D01*
X125890106Y-94189788D01*
X125890109Y-94189786D01*
X126015048Y-94017820D01*
X126015047Y-94017820D01*
X126015051Y-94017816D01*
X126019514Y-94009054D01*
X126067488Y-93958259D01*
X126135308Y-93941463D01*
X126201444Y-93963999D01*
G37*
%TD.AperFunction*%
%TA.AperFunction,NonConductor*%
G36*
X128678545Y-96628825D02*
G01*
X128712902Y-96689663D01*
X128716077Y-96721193D01*
X128694552Y-97496066D01*
X128673014Y-97562533D01*
X128618960Y-97606804D01*
X128549552Y-97614824D01*
X128486826Y-97584045D01*
X128470281Y-97565507D01*
X128430107Y-97510211D01*
X128279786Y-97359890D01*
X128107820Y-97234951D01*
X128107115Y-97234591D01*
X128099054Y-97230485D01*
X128048259Y-97182512D01*
X128031463Y-97114692D01*
X128053999Y-97048556D01*
X128099054Y-97009515D01*
X128107816Y-97005051D01*
X128129789Y-96989086D01*
X128279786Y-96880109D01*
X128279788Y-96880106D01*
X128279792Y-96880104D01*
X128430104Y-96729792D01*
X128491807Y-96644863D01*
X128547136Y-96602199D01*
X128616749Y-96596220D01*
X128678545Y-96628825D01*
G37*
%TD.AperFunction*%
%TA.AperFunction,NonConductor*%
G36*
X126201444Y-96503999D02*
G01*
X126240486Y-96549056D01*
X126244951Y-96557820D01*
X126369890Y-96729786D01*
X126520213Y-96880109D01*
X126692182Y-97005050D01*
X126700946Y-97009516D01*
X126751742Y-97057491D01*
X126768536Y-97125312D01*
X126745998Y-97191447D01*
X126700946Y-97230484D01*
X126692182Y-97234949D01*
X126520213Y-97359890D01*
X126369890Y-97510213D01*
X126244949Y-97682182D01*
X126240484Y-97690946D01*
X126192509Y-97741742D01*
X126124688Y-97758536D01*
X126058553Y-97735998D01*
X126019516Y-97690946D01*
X126015050Y-97682182D01*
X125890109Y-97510213D01*
X125739786Y-97359890D01*
X125567820Y-97234951D01*
X125567115Y-97234591D01*
X125559054Y-97230485D01*
X125508259Y-97182512D01*
X125491463Y-97114692D01*
X125513999Y-97048556D01*
X125559054Y-97009515D01*
X125567816Y-97005051D01*
X125589789Y-96989086D01*
X125739786Y-96880109D01*
X125739788Y-96880106D01*
X125739792Y-96880104D01*
X125890104Y-96729792D01*
X125890106Y-96729788D01*
X125890109Y-96729786D01*
X126015048Y-96557820D01*
X126015047Y-96557820D01*
X126015051Y-96557816D01*
X126019514Y-96549054D01*
X126067488Y-96498259D01*
X126135308Y-96481463D01*
X126201444Y-96503999D01*
G37*
%TD.AperFunction*%
%TA.AperFunction,NonConductor*%
G36*
X128939547Y-86519685D02*
G01*
X128985302Y-86572489D01*
X128996460Y-86627443D01*
X128961471Y-87887004D01*
X128939933Y-87953471D01*
X128885879Y-87997742D01*
X128816471Y-88005762D01*
X128753745Y-87974983D01*
X128719425Y-87918170D01*
X128718751Y-87918390D01*
X128717812Y-87915500D01*
X128717618Y-87915179D01*
X128717308Y-87913951D01*
X128717246Y-87913763D01*
X128717246Y-87913757D01*
X128651557Y-87711588D01*
X128555051Y-87522184D01*
X128555049Y-87522181D01*
X128555048Y-87522179D01*
X128430109Y-87350213D01*
X128279786Y-87199890D01*
X128107820Y-87074951D01*
X127918414Y-86978444D01*
X127918413Y-86978443D01*
X127918412Y-86978443D01*
X127716243Y-86912754D01*
X127716241Y-86912753D01*
X127716240Y-86912753D01*
X127554957Y-86887208D01*
X127506287Y-86879500D01*
X127293713Y-86879500D01*
X127245042Y-86887208D01*
X127083760Y-86912753D01*
X126881585Y-86978444D01*
X126692179Y-87074951D01*
X126520215Y-87199889D01*
X126406673Y-87313431D01*
X126345350Y-87346915D01*
X126275658Y-87341931D01*
X126219725Y-87300059D01*
X126202810Y-87269082D01*
X126153797Y-87137671D01*
X126153793Y-87137664D01*
X126067547Y-87022455D01*
X126067544Y-87022452D01*
X125952335Y-86936206D01*
X125952328Y-86936202D01*
X125817482Y-86885908D01*
X125817483Y-86885908D01*
X125757883Y-86879501D01*
X125757881Y-86879500D01*
X125757873Y-86879500D01*
X125757864Y-86879500D01*
X123962129Y-86879500D01*
X123962123Y-86879501D01*
X123902516Y-86885908D01*
X123767671Y-86936202D01*
X123767664Y-86936206D01*
X123652455Y-87022452D01*
X123652452Y-87022455D01*
X123566206Y-87137664D01*
X123566202Y-87137671D01*
X123515908Y-87272517D01*
X123509501Y-87332116D01*
X123509500Y-87332135D01*
X123509500Y-89127870D01*
X123509501Y-89127876D01*
X123515908Y-89187483D01*
X123566202Y-89322328D01*
X123566206Y-89322335D01*
X123652452Y-89437544D01*
X123652455Y-89437547D01*
X123767664Y-89523793D01*
X123767671Y-89523797D01*
X123899082Y-89572810D01*
X123955016Y-89614681D01*
X123979433Y-89680145D01*
X123964582Y-89748418D01*
X123943431Y-89776673D01*
X123829889Y-89890215D01*
X123704951Y-90062179D01*
X123608444Y-90251585D01*
X123542753Y-90453760D01*
X123509500Y-90663713D01*
X123509500Y-90876286D01*
X123542753Y-91086239D01*
X123608444Y-91288414D01*
X123704951Y-91477820D01*
X123829890Y-91649786D01*
X123980213Y-91800109D01*
X124152182Y-91925050D01*
X124160946Y-91929516D01*
X124211742Y-91977491D01*
X124228536Y-92045312D01*
X124205998Y-92111447D01*
X124160946Y-92150484D01*
X124152182Y-92154949D01*
X123980213Y-92279890D01*
X123829890Y-92430213D01*
X123704951Y-92602179D01*
X123608444Y-92791585D01*
X123542753Y-92993760D01*
X123509500Y-93203713D01*
X123509500Y-93416286D01*
X123542753Y-93626239D01*
X123608444Y-93828414D01*
X123704951Y-94017820D01*
X123829890Y-94189786D01*
X123980213Y-94340109D01*
X124152182Y-94465050D01*
X124160946Y-94469516D01*
X124211742Y-94517491D01*
X124228536Y-94585312D01*
X124205998Y-94651447D01*
X124160946Y-94690484D01*
X124152182Y-94694949D01*
X123980213Y-94819890D01*
X123829890Y-94970213D01*
X123704951Y-95142179D01*
X123608444Y-95331585D01*
X123542753Y-95533760D01*
X123509500Y-95743713D01*
X123509500Y-95956286D01*
X123542753Y-96166239D01*
X123608444Y-96368414D01*
X123704951Y-96557820D01*
X123829890Y-96729786D01*
X123980213Y-96880109D01*
X124152182Y-97005050D01*
X124160946Y-97009516D01*
X124211742Y-97057491D01*
X124228536Y-97125312D01*
X124205998Y-97191447D01*
X124160946Y-97230484D01*
X124152182Y-97234949D01*
X123980213Y-97359890D01*
X123829890Y-97510213D01*
X123704951Y-97682179D01*
X123608444Y-97871585D01*
X123542754Y-98073757D01*
X123539967Y-98091352D01*
X123510036Y-98154486D01*
X123450723Y-98191416D01*
X123380861Y-98190416D01*
X123322629Y-98151805D01*
X123294516Y-98087841D01*
X123293549Y-98075646D01*
X123284094Y-97758536D01*
X123000055Y-88231844D01*
X123000000Y-88228149D01*
X123000000Y-86624000D01*
X123019685Y-86556961D01*
X123072489Y-86511206D01*
X123124000Y-86500000D01*
X128872508Y-86500000D01*
X128939547Y-86519685D01*
G37*
%TD.AperFunction*%
%TA.AperFunction,NonConductor*%
G36*
X128562161Y-99240247D02*
G01*
X128618095Y-99282118D01*
X128642512Y-99347583D01*
X128642780Y-99359872D01*
X128626371Y-99950604D01*
X128604833Y-100017071D01*
X128550779Y-100061342D01*
X128481371Y-100069362D01*
X128418645Y-100038583D01*
X128414738Y-100034842D01*
X128279786Y-99899890D01*
X128107820Y-99774951D01*
X128107115Y-99774591D01*
X128099054Y-99770485D01*
X128048259Y-99722512D01*
X128031463Y-99654692D01*
X128053999Y-99588556D01*
X128099054Y-99549515D01*
X128107816Y-99545051D01*
X128279792Y-99420104D01*
X128430104Y-99269792D01*
X128430109Y-99269784D01*
X128431146Y-99268748D01*
X128492470Y-99235263D01*
X128562161Y-99240247D01*
G37*
%TD.AperFunction*%
%TA.AperFunction,NonConductor*%
G36*
X126201444Y-99043999D02*
G01*
X126240486Y-99089056D01*
X126244951Y-99097820D01*
X126369890Y-99269786D01*
X126520213Y-99420109D01*
X126692182Y-99545050D01*
X126700946Y-99549516D01*
X126751742Y-99597491D01*
X126768536Y-99665312D01*
X126745998Y-99731447D01*
X126700946Y-99770484D01*
X126692182Y-99774949D01*
X126520213Y-99899890D01*
X126369890Y-100050213D01*
X126244949Y-100222182D01*
X126240484Y-100230946D01*
X126192509Y-100281742D01*
X126124688Y-100298536D01*
X126058553Y-100275998D01*
X126019516Y-100230946D01*
X126015050Y-100222182D01*
X125890109Y-100050213D01*
X125739786Y-99899890D01*
X125567820Y-99774951D01*
X125567115Y-99774591D01*
X125559054Y-99770485D01*
X125508259Y-99722512D01*
X125491463Y-99654692D01*
X125513999Y-99588556D01*
X125559054Y-99549515D01*
X125567816Y-99545051D01*
X125589789Y-99529086D01*
X125739786Y-99420109D01*
X125739788Y-99420106D01*
X125739792Y-99420104D01*
X125890104Y-99269792D01*
X125890106Y-99269788D01*
X125890109Y-99269786D01*
X126015048Y-99097820D01*
X126015047Y-99097820D01*
X126015051Y-99097816D01*
X126019514Y-99089054D01*
X126067488Y-99038259D01*
X126135308Y-99021463D01*
X126201444Y-99043999D01*
G37*
%TD.AperFunction*%
%TA.AperFunction,NonConductor*%
G36*
X123517207Y-98691590D02*
G01*
X123556716Y-98749216D01*
X123556764Y-98749362D01*
X123608444Y-98908416D01*
X123704951Y-99097820D01*
X123829890Y-99269786D01*
X123980213Y-99420109D01*
X124152182Y-99545050D01*
X124160946Y-99549516D01*
X124211742Y-99597491D01*
X124228536Y-99665312D01*
X124205998Y-99731447D01*
X124160946Y-99770484D01*
X124152182Y-99774949D01*
X123980213Y-99899890D01*
X123829890Y-100050213D01*
X123704951Y-100222179D01*
X123608442Y-100411588D01*
X123604407Y-100424007D01*
X123564968Y-100481681D01*
X123500608Y-100508876D01*
X123431762Y-100496959D01*
X123380288Y-100449713D01*
X123362533Y-100389381D01*
X123314888Y-98791372D01*
X123332566Y-98723780D01*
X123383983Y-98676472D01*
X123452814Y-98664472D01*
X123517207Y-98691590D01*
G37*
%TD.AperFunction*%
%TA.AperFunction,NonConductor*%
G36*
X128489590Y-101852818D02*
G01*
X128545524Y-101894689D01*
X128569941Y-101960153D01*
X128570209Y-101972443D01*
X128557723Y-102421956D01*
X128536185Y-102488423D01*
X128482131Y-102532694D01*
X128412723Y-102540714D01*
X128349998Y-102509935D01*
X128346090Y-102506194D01*
X128279786Y-102439890D01*
X128107820Y-102314951D01*
X128107115Y-102314591D01*
X128099054Y-102310485D01*
X128048259Y-102262512D01*
X128031463Y-102194692D01*
X128053999Y-102128556D01*
X128099054Y-102089515D01*
X128107816Y-102085051D01*
X128279792Y-101960104D01*
X128358579Y-101881316D01*
X128419898Y-101847834D01*
X128489590Y-101852818D01*
G37*
%TD.AperFunction*%
%TA.AperFunction,NonConductor*%
G36*
X126201444Y-101583999D02*
G01*
X126240486Y-101629056D01*
X126244951Y-101637820D01*
X126369890Y-101809786D01*
X126520213Y-101960109D01*
X126692182Y-102085050D01*
X126700946Y-102089516D01*
X126751742Y-102137491D01*
X126768536Y-102205312D01*
X126745998Y-102271447D01*
X126700946Y-102310484D01*
X126692182Y-102314949D01*
X126520213Y-102439890D01*
X126369890Y-102590213D01*
X126244949Y-102762182D01*
X126240484Y-102770946D01*
X126192509Y-102821742D01*
X126124688Y-102838536D01*
X126058553Y-102815998D01*
X126019516Y-102770946D01*
X126015050Y-102762182D01*
X125890109Y-102590213D01*
X125739786Y-102439890D01*
X125567820Y-102314951D01*
X125567115Y-102314591D01*
X125559054Y-102310485D01*
X125508259Y-102262512D01*
X125491463Y-102194692D01*
X125513999Y-102128556D01*
X125559054Y-102089515D01*
X125567816Y-102085051D01*
X125739725Y-101960153D01*
X125739786Y-101960109D01*
X125739788Y-101960106D01*
X125739792Y-101960104D01*
X125890104Y-101809792D01*
X125890106Y-101809788D01*
X125890109Y-101809786D01*
X126015048Y-101637820D01*
X126015049Y-101637819D01*
X126015051Y-101637816D01*
X126019514Y-101629054D01*
X126067488Y-101578259D01*
X126135308Y-101561463D01*
X126201444Y-101583999D01*
G37*
%TD.AperFunction*%
%TA.AperFunction,NonConductor*%
G36*
X123599576Y-101454236D02*
G01*
X123631687Y-101494032D01*
X123704951Y-101637819D01*
X123829890Y-101809786D01*
X123980213Y-101960109D01*
X124152182Y-102085050D01*
X124160946Y-102089516D01*
X124211742Y-102137491D01*
X124228536Y-102205312D01*
X124205998Y-102271447D01*
X124160946Y-102310484D01*
X124152182Y-102314949D01*
X123980213Y-102439890D01*
X123829890Y-102590213D01*
X123704949Y-102762182D01*
X123668285Y-102834139D01*
X123620311Y-102884934D01*
X123552490Y-102901729D01*
X123486355Y-102879191D01*
X123442904Y-102824476D01*
X123433856Y-102781538D01*
X123425758Y-102509935D01*
X123397257Y-101554019D01*
X123414935Y-101486426D01*
X123466352Y-101439118D01*
X123535183Y-101427118D01*
X123599576Y-101454236D01*
G37*
%TD.AperFunction*%
%TA.AperFunction,NonConductor*%
G36*
X126147226Y-104105524D02*
G01*
X126159810Y-104104985D01*
X126179674Y-104116581D01*
X126201444Y-104123999D01*
X126210719Y-104134703D01*
X126220151Y-104140209D01*
X126240486Y-104169056D01*
X126244951Y-104177820D01*
X126369890Y-104349786D01*
X126515065Y-104494961D01*
X126548550Y-104556284D01*
X126543566Y-104625976D01*
X126501694Y-104681909D01*
X126439722Y-104706027D01*
X125755281Y-104774471D01*
X125686616Y-104761554D01*
X125635834Y-104713565D01*
X125619058Y-104645739D01*
X125641615Y-104579611D01*
X125670056Y-104550769D01*
X125739792Y-104500104D01*
X125890104Y-104349792D01*
X125890106Y-104349788D01*
X125890109Y-104349786D01*
X126015048Y-104177820D01*
X126015047Y-104177820D01*
X126015051Y-104177816D01*
X126019514Y-104169054D01*
X126028160Y-104159900D01*
X126032897Y-104148232D01*
X126051696Y-104134979D01*
X126067488Y-104118259D01*
X126079710Y-104115231D01*
X126090004Y-104107976D01*
X126112985Y-104106991D01*
X126135308Y-104101463D01*
X126147226Y-104105524D01*
G37*
%TD.AperFunction*%
%TA.AperFunction,NonConductor*%
G36*
X123679962Y-104150377D02*
G01*
X123701115Y-104174579D01*
X123702085Y-104173875D01*
X123829890Y-104349786D01*
X123980213Y-104500109D01*
X124152179Y-104625048D01*
X124152181Y-104625049D01*
X124152184Y-104625051D01*
X124283854Y-104692140D01*
X124334650Y-104740115D01*
X124351445Y-104807935D01*
X124328908Y-104874070D01*
X124274193Y-104917522D01*
X124239897Y-104926010D01*
X123632319Y-104986767D01*
X123563654Y-104973850D01*
X123512872Y-104925861D01*
X123496036Y-104867080D01*
X123477643Y-104250161D01*
X123495321Y-104182567D01*
X123546738Y-104135259D01*
X123615569Y-104123259D01*
X123679962Y-104150377D01*
G37*
%TD.AperFunction*%
M02*
