%TF.GenerationSoftware,KiCad,Pcbnew,9.0.7*%
%TF.CreationDate,2026-02-08T16:25:53+05:30*%
%TF.ProjectId,gray,67726179-2e6b-4696-9361-645f70636258,rev?*%
%TF.SameCoordinates,Original*%
%TF.FileFunction,Copper,L2,Bot*%
%TF.FilePolarity,Positive*%
%FSLAX46Y46*%
G04 Gerber Fmt 4.6, Leading zero omitted, Abs format (unit mm)*
G04 Created by KiCad (PCBNEW 9.0.7) date 2026-02-08 16:25:53*
%MOMM*%
%LPD*%
G01*
G04 APERTURE LIST*
G04 Aperture macros list*
%AMRoundRect*
0 Rectangle with rounded corners*
0 $1 Rounding radius*
0 $2 $3 $4 $5 $6 $7 $8 $9 X,Y pos of 4 corners*
0 Add a 4 corners polygon primitive as box body*
4,1,4,$2,$3,$4,$5,$6,$7,$8,$9,$2,$3,0*
0 Add four circle primitives for the rounded corners*
1,1,$1+$1,$2,$3*
1,1,$1+$1,$4,$5*
1,1,$1+$1,$6,$7*
1,1,$1+$1,$8,$9*
0 Add four rect primitives between the rounded corners*
20,1,$1+$1,$2,$3,$4,$5,0*
20,1,$1+$1,$4,$5,$6,$7,0*
20,1,$1+$1,$6,$7,$8,$9,0*
20,1,$1+$1,$8,$9,$2,$3,0*%
G04 Aperture macros list end*
%TA.AperFunction,ComponentPad*%
%ADD10R,2.500000X4.500000*%
%TD*%
%TA.AperFunction,ComponentPad*%
%ADD11O,2.500000X4.500000*%
%TD*%
%TA.AperFunction,ComponentPad*%
%ADD12R,1.905000X2.000000*%
%TD*%
%TA.AperFunction,ComponentPad*%
%ADD13O,1.905000X2.000000*%
%TD*%
%TA.AperFunction,ComponentPad*%
%ADD14R,1.700000X1.700000*%
%TD*%
%TA.AperFunction,ComponentPad*%
%ADD15C,1.700000*%
%TD*%
%TA.AperFunction,ComponentPad*%
%ADD16RoundRect,0.250000X-1.050000X-1.050000X1.050000X-1.050000X1.050000X1.050000X-1.050000X1.050000X0*%
%TD*%
%TA.AperFunction,ComponentPad*%
%ADD17C,2.600000*%
%TD*%
%TA.AperFunction,ComponentPad*%
%ADD18RoundRect,0.250000X-1.350000X-1.350000X1.350000X-1.350000X1.350000X1.350000X-1.350000X1.350000X0*%
%TD*%
%TA.AperFunction,ComponentPad*%
%ADD19C,3.200000*%
%TD*%
%TA.AperFunction,ComponentPad*%
%ADD20RoundRect,0.250000X-0.750000X-0.750000X0.750000X-0.750000X0.750000X0.750000X-0.750000X0.750000X0*%
%TD*%
%TA.AperFunction,ComponentPad*%
%ADD21C,2.000000*%
%TD*%
G04 APERTURE END LIST*
D10*
%TO.P,Q2,1,G*%
%TO.N,Net-(Q2-G)*%
X137650000Y-108100000D03*
D11*
%TO.P,Q2,2,D*%
%TO.N,unconnected-(Q2-D-Pad2)*%
X143100000Y-108100000D03*
%TO.P,Q2,3,S*%
%TO.N,Net-(Q2-S)*%
X148550000Y-108100000D03*
%TD*%
D12*
%TO.P,Q1,1,G*%
%TO.N,unconnected-(Q1-G-Pad1)*%
X164190000Y-66750000D03*
D13*
%TO.P,Q1,2,D*%
%TO.N,Net-(Q1-D)*%
X166730000Y-66750000D03*
%TO.P,Q1,3,S*%
%TO.N,Net-(D3-A1)*%
X169270000Y-66750000D03*
%TD*%
D14*
%TO.P,J1,1,NC*%
%TO.N,unconnected-(J1-NC-Pad1)*%
X124860000Y-88230000D03*
D15*
%TO.P,J1,2,NC*%
%TO.N,unconnected-(J1-NC-Pad2)*%
X127400000Y-88230000D03*
%TO.P,J1,3,VCC*%
%TO.N,/+3V3*%
X124860000Y-90770000D03*
%TO.P,J1,4,JTMS/SWDIO*%
%TO.N,Net-(J1-JTMS{slash}SWDIO)*%
X127400000Y-90770000D03*
%TO.P,J1,5,GND*%
%TO.N,GND*%
X124860000Y-93310000D03*
%TO.P,J1,6,JCLK/SWCLK*%
%TO.N,Net-(J1-JCLK{slash}SWCLK)*%
X127400000Y-93310000D03*
%TO.P,J1,7,GND*%
%TO.N,GND*%
X124860000Y-95850000D03*
%TO.P,J1,8,JTDO/SWO*%
%TO.N,unconnected-(J1-JTDO{slash}SWO-Pad8)*%
X127400000Y-95850000D03*
%TO.P,J1,9,JRCLK/NC*%
%TO.N,unconnected-(J1-JRCLK{slash}NC-Pad9)*%
X124860000Y-98390000D03*
%TO.P,J1,10,JTDI/NC*%
%TO.N,unconnected-(J1-JTDI{slash}NC-Pad10)*%
X127400000Y-98390000D03*
%TO.P,J1,11,GNDDetect*%
%TO.N,unconnected-(J1-GNDDetect-Pad11)*%
X124860000Y-100930000D03*
%TO.P,J1,12,~{RST}*%
%TO.N,Net-(J1-~{RST})*%
X127400000Y-100930000D03*
%TO.P,J1,13,VCP_RX*%
%TO.N,unconnected-(J1-VCP_RX-Pad13)*%
X124860000Y-103470000D03*
%TO.P,J1,14,VCP_TX*%
%TO.N,unconnected-(J1-VCP_TX-Pad14)*%
X127400000Y-103470000D03*
%TD*%
D16*
%TO.P,DC_input_40V1,1,Pin_1*%
%TO.N,Net-(DC_input_40V1-Pin_1)*%
X137940000Y-99110000D03*
D17*
%TO.P,DC_input_40V1,2,Pin_2*%
%TO.N,GND*%
X143020000Y-99110000D03*
%TD*%
D18*
%TO.P,D1,1,K*%
%TO.N,GND*%
X154450000Y-107200000D03*
D19*
%TO.P,D1,2,A*%
%TO.N,Net-(D1-A)*%
X169690000Y-107200000D03*
%TD*%
D20*
%TO.P,C4,1*%
%TO.N,Net-(D3-A1)*%
X126104646Y-80150000D03*
D21*
%TO.P,C4,2*%
%TO.N,GND*%
X131104646Y-80150000D03*
%TD*%
D20*
%TO.P,C1,1*%
%TO.N,Net-(D3-A1)*%
X126104646Y-68600000D03*
D21*
%TO.P,C1,2*%
%TO.N,GND*%
X131104646Y-68600000D03*
%TD*%
%TA.AperFunction,Conductor*%
%TO.N,/+3V3*%
G36*
X151443039Y-81019685D02*
G01*
X151488794Y-81072489D01*
X151500000Y-81124000D01*
X151500000Y-91876000D01*
X151480315Y-91943039D01*
X151427511Y-91988794D01*
X151376000Y-92000000D01*
X142124000Y-92000000D01*
X142056961Y-91980315D01*
X142011206Y-91927511D01*
X142000000Y-91876000D01*
X142000000Y-81124000D01*
X142019685Y-81056961D01*
X142072489Y-81011206D01*
X142124000Y-81000000D01*
X151376000Y-81000000D01*
X151443039Y-81019685D01*
G37*
%TD.AperFunction*%
%TD*%
%TA.AperFunction,Conductor*%
%TO.N,/+12V*%
G36*
X163943039Y-81519685D02*
G01*
X163988794Y-81572489D01*
X164000000Y-81624000D01*
X164000000Y-91376000D01*
X163980315Y-91443039D01*
X163927511Y-91488794D01*
X163876000Y-91500000D01*
X152624000Y-91500000D01*
X152556961Y-91480315D01*
X152511206Y-91427511D01*
X152500000Y-91376000D01*
X152500000Y-81624000D01*
X152519685Y-81556961D01*
X152572489Y-81511206D01*
X152624000Y-81500000D01*
X163876000Y-81500000D01*
X163943039Y-81519685D01*
G37*
%TD.AperFunction*%
%TD*%
%TA.AperFunction,Conductor*%
%TO.N,/+12V*%
G36*
X172443039Y-93019685D02*
G01*
X172488794Y-93072489D01*
X172500000Y-93124000D01*
X172500000Y-100376000D01*
X172480315Y-100443039D01*
X172427511Y-100488794D01*
X172376000Y-100500000D01*
X163632542Y-100500000D01*
X163565503Y-100480315D01*
X163519748Y-100427511D01*
X163508817Y-100367752D01*
X163992283Y-93115752D01*
X164016383Y-93050170D01*
X164072114Y-93008029D01*
X164116008Y-93000000D01*
X172376000Y-93000000D01*
X172443039Y-93019685D01*
G37*
%TD.AperFunction*%
%TD*%
%TA.AperFunction,Conductor*%
%TO.N,/+3V3*%
G36*
X145443039Y-93519685D02*
G01*
X145488794Y-93572489D01*
X145500000Y-93624000D01*
X145500000Y-103381763D01*
X145480315Y-103448802D01*
X145427511Y-103494557D01*
X145381898Y-103505623D01*
X135129898Y-103993814D01*
X135061998Y-103977340D01*
X135013783Y-103926772D01*
X135000000Y-103869954D01*
X135000000Y-98009983D01*
X136139500Y-98009983D01*
X136139500Y-100210001D01*
X136139501Y-100210018D01*
X136150000Y-100312796D01*
X136150001Y-100312799D01*
X136200962Y-100466587D01*
X136205186Y-100479334D01*
X136297288Y-100628656D01*
X136421344Y-100752712D01*
X136570666Y-100844814D01*
X136737203Y-100899999D01*
X136839991Y-100910500D01*
X139040008Y-100910499D01*
X139142797Y-100899999D01*
X139309334Y-100844814D01*
X139458656Y-100752712D01*
X139582712Y-100628656D01*
X139674814Y-100479334D01*
X139729999Y-100312797D01*
X139740500Y-100210009D01*
X139740499Y-98991995D01*
X141219500Y-98991995D01*
X141219500Y-99228004D01*
X141219501Y-99228020D01*
X141250306Y-99462010D01*
X141311394Y-99689993D01*
X141401714Y-99908045D01*
X141401719Y-99908056D01*
X141472677Y-100030957D01*
X141519727Y-100112450D01*
X141519729Y-100112453D01*
X141519730Y-100112454D01*
X141663406Y-100299697D01*
X141663412Y-100299704D01*
X141830295Y-100466587D01*
X141830302Y-100466593D01*
X141846909Y-100479336D01*
X142017550Y-100610273D01*
X142148918Y-100686118D01*
X142221943Y-100728280D01*
X142221948Y-100728282D01*
X142221951Y-100728284D01*
X142440007Y-100818606D01*
X142667986Y-100879693D01*
X142901989Y-100910500D01*
X142901996Y-100910500D01*
X143138004Y-100910500D01*
X143138011Y-100910500D01*
X143372014Y-100879693D01*
X143599993Y-100818606D01*
X143818049Y-100728284D01*
X144022450Y-100610273D01*
X144209699Y-100466592D01*
X144376592Y-100299699D01*
X144520273Y-100112450D01*
X144638284Y-99908049D01*
X144728606Y-99689993D01*
X144789693Y-99462014D01*
X144820500Y-99228011D01*
X144820500Y-98991989D01*
X144789693Y-98757986D01*
X144728606Y-98530007D01*
X144638284Y-98311951D01*
X144638282Y-98311948D01*
X144638280Y-98311943D01*
X144596118Y-98238918D01*
X144520273Y-98107550D01*
X144376592Y-97920301D01*
X144376587Y-97920295D01*
X144209704Y-97753412D01*
X144209697Y-97753406D01*
X144022454Y-97609730D01*
X144022453Y-97609729D01*
X144022450Y-97609727D01*
X143940957Y-97562677D01*
X143818056Y-97491719D01*
X143818045Y-97491714D01*
X143599993Y-97401394D01*
X143372010Y-97340306D01*
X143138020Y-97309501D01*
X143138017Y-97309500D01*
X143138011Y-97309500D01*
X142901989Y-97309500D01*
X142901983Y-97309500D01*
X142901979Y-97309501D01*
X142667989Y-97340306D01*
X142440006Y-97401394D01*
X142221954Y-97491714D01*
X142221943Y-97491719D01*
X142017545Y-97609730D01*
X141830302Y-97753406D01*
X141830295Y-97753412D01*
X141663412Y-97920295D01*
X141663406Y-97920302D01*
X141519730Y-98107545D01*
X141401719Y-98311943D01*
X141401714Y-98311954D01*
X141311394Y-98530006D01*
X141250306Y-98757989D01*
X141219501Y-98991979D01*
X141219500Y-98991995D01*
X139740499Y-98991995D01*
X139740499Y-98009992D01*
X139729999Y-97907203D01*
X139674814Y-97740666D01*
X139582712Y-97591344D01*
X139458656Y-97467288D01*
X139309334Y-97375186D01*
X139142797Y-97320001D01*
X139142795Y-97320000D01*
X139040010Y-97309500D01*
X136839998Y-97309500D01*
X136839981Y-97309501D01*
X136737203Y-97320000D01*
X136737200Y-97320001D01*
X136570668Y-97375185D01*
X136570663Y-97375187D01*
X136421342Y-97467289D01*
X136297289Y-97591342D01*
X136205187Y-97740663D01*
X136205185Y-97740668D01*
X136200962Y-97753412D01*
X136150001Y-97907203D01*
X136150001Y-97907204D01*
X136150000Y-97907204D01*
X136139500Y-98009983D01*
X135000000Y-98009983D01*
X135000000Y-93624000D01*
X135019685Y-93556961D01*
X135072489Y-93511206D01*
X135124000Y-93500000D01*
X145376000Y-93500000D01*
X145443039Y-93519685D01*
G37*
%TD.AperFunction*%
%TD*%
%TA.AperFunction,Conductor*%
%TO.N,/+3V3*%
G36*
X162943039Y-93019685D02*
G01*
X162988794Y-93072489D01*
X163000000Y-93124000D01*
X163000000Y-102881763D01*
X162980315Y-102948802D01*
X162927511Y-102994557D01*
X162881898Y-103005623D01*
X152629898Y-103493814D01*
X152561998Y-103477340D01*
X152513783Y-103426772D01*
X152500000Y-103369954D01*
X152500000Y-93124000D01*
X152519685Y-93056961D01*
X152572489Y-93011206D01*
X152624000Y-93000000D01*
X162876000Y-93000000D01*
X162943039Y-93019685D01*
G37*
%TD.AperFunction*%
%TD*%
%TA.AperFunction,Conductor*%
%TO.N,/+3V3*%
G36*
X135884807Y-105519685D02*
G01*
X135930562Y-105572489D01*
X135940506Y-105641647D01*
X135933950Y-105667332D01*
X135905909Y-105742514D01*
X135905908Y-105742516D01*
X135899501Y-105802116D01*
X135899501Y-105802123D01*
X135899500Y-105802135D01*
X135899500Y-110397870D01*
X135899501Y-110397876D01*
X135905908Y-110457483D01*
X135956202Y-110592328D01*
X135956206Y-110592335D01*
X136016850Y-110673344D01*
X136042454Y-110707546D01*
X136092301Y-110744861D01*
X136134171Y-110800794D01*
X136139155Y-110870486D01*
X136105670Y-110931809D01*
X136044346Y-110965293D01*
X136021862Y-110968066D01*
X135127873Y-110996003D01*
X135060251Y-110978422D01*
X135012870Y-110927073D01*
X135000000Y-110872064D01*
X135000000Y-105624000D01*
X135019685Y-105556961D01*
X135072489Y-105511206D01*
X135124000Y-105500000D01*
X135817768Y-105500000D01*
X135884807Y-105519685D01*
G37*
%TD.AperFunction*%
%TA.AperFunction,Conductor*%
G36*
X141973118Y-105508444D02*
G01*
X142002486Y-105514468D01*
X142006293Y-105518186D01*
X142011398Y-105519685D01*
X142031024Y-105542335D01*
X142052476Y-105563282D01*
X142053669Y-105568468D01*
X142057153Y-105572489D01*
X142061418Y-105602155D01*
X142068140Y-105631373D01*
X142066339Y-105636380D01*
X142067097Y-105641647D01*
X142054645Y-105668911D01*
X142044504Y-105697124D01*
X142039352Y-105702400D01*
X142038072Y-105705203D01*
X142019853Y-105722369D01*
X141943339Y-105781081D01*
X141943329Y-105781089D01*
X141781089Y-105943330D01*
X141781081Y-105943338D01*
X141641392Y-106125382D01*
X141526657Y-106324109D01*
X141526650Y-106324123D01*
X141438842Y-106536112D01*
X141379453Y-106757759D01*
X141379451Y-106757770D01*
X141349500Y-106985258D01*
X141349500Y-109214741D01*
X141374446Y-109404215D01*
X141379452Y-109442238D01*
X141379453Y-109442240D01*
X141438842Y-109663887D01*
X141526650Y-109875876D01*
X141526657Y-109875890D01*
X141641392Y-110074617D01*
X141781081Y-110256661D01*
X141781089Y-110256670D01*
X141943329Y-110418910D01*
X141943333Y-110418913D01*
X141943339Y-110418919D01*
X142123691Y-110557308D01*
X142164891Y-110613734D01*
X142169046Y-110683480D01*
X142134833Y-110744401D01*
X142073116Y-110777153D01*
X142052075Y-110779621D01*
X139392931Y-110862720D01*
X139325310Y-110845140D01*
X139277928Y-110793790D01*
X139265829Y-110724976D01*
X139289790Y-110664473D01*
X139343796Y-110592331D01*
X139394091Y-110457483D01*
X139400500Y-110397873D01*
X139400499Y-105802128D01*
X139394091Y-105742517D01*
X139380174Y-105705203D01*
X139366050Y-105667332D01*
X139361066Y-105597641D01*
X139394552Y-105536318D01*
X139455875Y-105502834D01*
X139482232Y-105500000D01*
X141944359Y-105500000D01*
X141973118Y-105508444D01*
G37*
%TD.AperFunction*%
%TA.AperFunction,Conductor*%
G36*
X147461398Y-105519685D02*
G01*
X147507153Y-105572489D01*
X147517097Y-105641647D01*
X147488072Y-105705203D01*
X147469853Y-105722369D01*
X147393339Y-105781081D01*
X147393329Y-105781089D01*
X147231089Y-105943330D01*
X147231081Y-105943338D01*
X147091392Y-106125382D01*
X146976657Y-106324109D01*
X146976650Y-106324123D01*
X146888842Y-106536112D01*
X146829453Y-106757759D01*
X146829451Y-106757770D01*
X146799500Y-106985258D01*
X146799500Y-109214741D01*
X146824446Y-109404215D01*
X146829452Y-109442238D01*
X146829453Y-109442240D01*
X146888842Y-109663887D01*
X146976650Y-109875876D01*
X146976657Y-109875890D01*
X147091392Y-110074617D01*
X147231081Y-110256661D01*
X147231089Y-110256670D01*
X147378586Y-110404167D01*
X147412071Y-110465490D01*
X147407087Y-110535182D01*
X147365215Y-110591115D01*
X147299751Y-110615532D01*
X147294778Y-110615787D01*
X144244976Y-110711094D01*
X144177355Y-110693514D01*
X144129973Y-110642164D01*
X144117874Y-110573350D01*
X144144899Y-110508919D01*
X144165612Y-110488783D01*
X144256661Y-110418919D01*
X144256664Y-110418916D01*
X144256670Y-110418911D01*
X144418911Y-110256670D01*
X144418914Y-110256665D01*
X144418919Y-110256661D01*
X144558611Y-110074612D01*
X144673344Y-109875888D01*
X144761158Y-109663887D01*
X144820548Y-109442238D01*
X144850500Y-109214734D01*
X144850500Y-106985266D01*
X144820548Y-106757762D01*
X144761158Y-106536113D01*
X144673344Y-106324112D01*
X144558611Y-106125388D01*
X144558608Y-106125385D01*
X144558607Y-106125382D01*
X144418918Y-105943338D01*
X144418911Y-105943330D01*
X144256670Y-105781089D01*
X144256665Y-105781085D01*
X144256661Y-105781081D01*
X144180151Y-105722373D01*
X144138952Y-105665948D01*
X144134797Y-105596202D01*
X144169010Y-105535281D01*
X144230727Y-105502529D01*
X144255641Y-105500000D01*
X147394359Y-105500000D01*
X147461398Y-105519685D01*
G37*
%TD.AperFunction*%
%TA.AperFunction,Conductor*%
G36*
X150943039Y-105519685D02*
G01*
X150988794Y-105572489D01*
X151000000Y-105624000D01*
X151000000Y-110379813D01*
X150980315Y-110446852D01*
X150927511Y-110492607D01*
X150879873Y-110503752D01*
X149894200Y-110534554D01*
X149826578Y-110516973D01*
X149779197Y-110465624D01*
X149767098Y-110396810D01*
X149794123Y-110332379D01*
X149802636Y-110322943D01*
X149868919Y-110256661D01*
X150008611Y-110074612D01*
X150123344Y-109875888D01*
X150211158Y-109663887D01*
X150270548Y-109442238D01*
X150300500Y-109214734D01*
X150300500Y-106985266D01*
X150270548Y-106757762D01*
X150211158Y-106536113D01*
X150123344Y-106324112D01*
X150008611Y-106125388D01*
X150008608Y-106125385D01*
X150008607Y-106125382D01*
X149868918Y-105943338D01*
X149868911Y-105943330D01*
X149706670Y-105781089D01*
X149706665Y-105781085D01*
X149706661Y-105781081D01*
X149630151Y-105722373D01*
X149588952Y-105665948D01*
X149584797Y-105596202D01*
X149619010Y-105535281D01*
X149680727Y-105502529D01*
X149705641Y-105500000D01*
X150876000Y-105500000D01*
X150943039Y-105519685D01*
G37*
%TD.AperFunction*%
%TD*%
%TA.AperFunction,Conductor*%
%TO.N,/+3V3*%
G36*
X171443039Y-104519685D02*
G01*
X171488794Y-104572489D01*
X171500000Y-104624000D01*
X171500000Y-105743096D01*
X171480315Y-105810135D01*
X171427511Y-105855890D01*
X171358353Y-105865834D01*
X171294797Y-105836809D01*
X171277625Y-105818583D01*
X171272632Y-105812076D01*
X171272623Y-105812066D01*
X171077933Y-105617376D01*
X171077926Y-105617370D01*
X170859483Y-105449754D01*
X170859482Y-105449753D01*
X170859479Y-105449751D01*
X170740995Y-105381344D01*
X170621028Y-105312080D01*
X170621017Y-105312075D01*
X170366630Y-105206704D01*
X170211676Y-105165185D01*
X170100666Y-105135440D01*
X170100660Y-105135439D01*
X170100655Y-105135438D01*
X169827684Y-105099501D01*
X169827679Y-105099500D01*
X169827674Y-105099500D01*
X169552326Y-105099500D01*
X169552320Y-105099500D01*
X169552315Y-105099501D01*
X169279344Y-105135438D01*
X169279337Y-105135439D01*
X169279334Y-105135440D01*
X169223125Y-105150500D01*
X169013369Y-105206704D01*
X168758982Y-105312075D01*
X168758971Y-105312080D01*
X168520516Y-105449754D01*
X168302073Y-105617370D01*
X168302066Y-105617376D01*
X168107376Y-105812066D01*
X168107370Y-105812073D01*
X167939754Y-106030516D01*
X167802080Y-106268971D01*
X167802075Y-106268982D01*
X167696704Y-106523369D01*
X167625441Y-106789331D01*
X167625438Y-106789344D01*
X167589501Y-107062315D01*
X167589500Y-107062332D01*
X167589500Y-107337667D01*
X167589501Y-107337684D01*
X167625438Y-107610655D01*
X167625439Y-107610660D01*
X167625440Y-107610666D01*
X167625441Y-107610668D01*
X167696704Y-107876630D01*
X167802075Y-108131017D01*
X167802080Y-108131028D01*
X167884861Y-108274407D01*
X167939751Y-108369479D01*
X167939753Y-108369482D01*
X167939754Y-108369483D01*
X168107370Y-108587926D01*
X168107376Y-108587933D01*
X168302066Y-108782623D01*
X168302072Y-108782628D01*
X168520521Y-108950249D01*
X168639007Y-109018657D01*
X168758971Y-109087919D01*
X168758976Y-109087921D01*
X168758979Y-109087923D01*
X169013368Y-109193295D01*
X169279334Y-109264560D01*
X169552326Y-109300500D01*
X169552333Y-109300500D01*
X169827667Y-109300500D01*
X169827674Y-109300500D01*
X170100666Y-109264560D01*
X170366632Y-109193295D01*
X170621021Y-109087923D01*
X170859479Y-108950249D01*
X171077928Y-108782628D01*
X171272628Y-108587928D01*
X171277621Y-108581421D01*
X171334047Y-108540216D01*
X171403793Y-108536058D01*
X171464715Y-108570268D01*
X171497470Y-108631984D01*
X171500000Y-108656903D01*
X171500000Y-109879220D01*
X171480315Y-109946259D01*
X171427511Y-109992014D01*
X171379262Y-110003177D01*
X152627262Y-110496651D01*
X152559728Y-110478737D01*
X152512600Y-110427155D01*
X152500000Y-110372694D01*
X152500000Y-109283872D01*
X152519685Y-109216833D01*
X152572489Y-109171078D01*
X152641647Y-109161134D01*
X152689092Y-109178331D01*
X152780666Y-109234814D01*
X152947203Y-109289999D01*
X153049991Y-109300500D01*
X155850008Y-109300499D01*
X155952797Y-109289999D01*
X156119334Y-109234814D01*
X156268656Y-109142712D01*
X156392712Y-109018656D01*
X156484814Y-108869334D01*
X156539999Y-108702797D01*
X156550500Y-108600009D01*
X156550499Y-105799992D01*
X156539999Y-105697203D01*
X156484814Y-105530666D01*
X156392712Y-105381344D01*
X156268656Y-105257288D01*
X156119334Y-105165186D01*
X155952797Y-105110001D01*
X155952795Y-105110000D01*
X155850010Y-105099500D01*
X153049998Y-105099500D01*
X153049981Y-105099501D01*
X152947203Y-105110000D01*
X152947200Y-105110001D01*
X152780668Y-105165185D01*
X152780659Y-105165189D01*
X152689096Y-105221666D01*
X152621704Y-105240106D01*
X152555040Y-105219183D01*
X152510271Y-105165541D01*
X152500000Y-105116127D01*
X152500000Y-104624000D01*
X152519685Y-104556961D01*
X152572489Y-104511206D01*
X152624000Y-104500000D01*
X171376000Y-104500000D01*
X171443039Y-104519685D01*
G37*
%TD.AperFunction*%
%TD*%
%TA.AperFunction,Conductor*%
%TO.N,/+3V3*%
G36*
X129443039Y-86519685D02*
G01*
X129488794Y-86572489D01*
X129500000Y-86624000D01*
X129500000Y-86998285D01*
X129499952Y-87001728D01*
X129010416Y-104625048D01*
X129003349Y-104879443D01*
X128981811Y-104945910D01*
X128927757Y-104990181D01*
X128879397Y-105000000D01*
X127844357Y-105000000D01*
X127777318Y-104980315D01*
X127731563Y-104927511D01*
X127721619Y-104858353D01*
X127750644Y-104794797D01*
X127806037Y-104758069D01*
X127918412Y-104721557D01*
X128107816Y-104625051D01*
X128129789Y-104609086D01*
X128279786Y-104500109D01*
X128279788Y-104500106D01*
X128279792Y-104500104D01*
X128430104Y-104349792D01*
X128430106Y-104349788D01*
X128430109Y-104349786D01*
X128555048Y-104177820D01*
X128555047Y-104177820D01*
X128555051Y-104177816D01*
X128651557Y-103988412D01*
X128717246Y-103786243D01*
X128750500Y-103576287D01*
X128750500Y-103363713D01*
X128717246Y-103153757D01*
X128651557Y-102951588D01*
X128555051Y-102762184D01*
X128555049Y-102762181D01*
X128555048Y-102762179D01*
X128430109Y-102590213D01*
X128279786Y-102439890D01*
X128107820Y-102314951D01*
X128107115Y-102314591D01*
X128099054Y-102310485D01*
X128048259Y-102262512D01*
X128031463Y-102194692D01*
X128053999Y-102128556D01*
X128099054Y-102089515D01*
X128107816Y-102085051D01*
X128129789Y-102069086D01*
X128279786Y-101960109D01*
X128279788Y-101960106D01*
X128279792Y-101960104D01*
X128430104Y-101809792D01*
X128430106Y-101809788D01*
X128430109Y-101809786D01*
X128555048Y-101637820D01*
X128555047Y-101637820D01*
X128555051Y-101637816D01*
X128651557Y-101448412D01*
X128717246Y-101246243D01*
X128750500Y-101036287D01*
X128750500Y-100823713D01*
X128717246Y-100613757D01*
X128651557Y-100411588D01*
X128555051Y-100222184D01*
X128555049Y-100222181D01*
X128555048Y-100222179D01*
X128430109Y-100050213D01*
X128279786Y-99899890D01*
X128107820Y-99774951D01*
X128107115Y-99774591D01*
X128099054Y-99770485D01*
X128048259Y-99722512D01*
X128031463Y-99654692D01*
X128053999Y-99588556D01*
X128099054Y-99549515D01*
X128107816Y-99545051D01*
X128129789Y-99529086D01*
X128279786Y-99420109D01*
X128279788Y-99420106D01*
X128279792Y-99420104D01*
X128430104Y-99269792D01*
X128430106Y-99269788D01*
X128430109Y-99269786D01*
X128555048Y-99097820D01*
X128555047Y-99097820D01*
X128555051Y-99097816D01*
X128651557Y-98908412D01*
X128717246Y-98706243D01*
X128750500Y-98496287D01*
X128750500Y-98283713D01*
X128717246Y-98073757D01*
X128651557Y-97871588D01*
X128555051Y-97682184D01*
X128555049Y-97682181D01*
X128555048Y-97682179D01*
X128430109Y-97510213D01*
X128279786Y-97359890D01*
X128107820Y-97234951D01*
X128107115Y-97234591D01*
X128099054Y-97230485D01*
X128048259Y-97182512D01*
X128031463Y-97114692D01*
X128053999Y-97048556D01*
X128099054Y-97009515D01*
X128107816Y-97005051D01*
X128129789Y-96989086D01*
X128279786Y-96880109D01*
X128279788Y-96880106D01*
X128279792Y-96880104D01*
X128430104Y-96729792D01*
X128430106Y-96729788D01*
X128430109Y-96729786D01*
X128555048Y-96557820D01*
X128555047Y-96557820D01*
X128555051Y-96557816D01*
X128651557Y-96368412D01*
X128717246Y-96166243D01*
X128750500Y-95956287D01*
X128750500Y-95743713D01*
X128717246Y-95533757D01*
X128651557Y-95331588D01*
X128555051Y-95142184D01*
X128555049Y-95142181D01*
X128555048Y-95142179D01*
X128430109Y-94970213D01*
X128279786Y-94819890D01*
X128107820Y-94694951D01*
X128107115Y-94694591D01*
X128099054Y-94690485D01*
X128048259Y-94642512D01*
X128031463Y-94574692D01*
X128053999Y-94508556D01*
X128099054Y-94469515D01*
X128107816Y-94465051D01*
X128129789Y-94449086D01*
X128279786Y-94340109D01*
X128279788Y-94340106D01*
X128279792Y-94340104D01*
X128430104Y-94189792D01*
X128430106Y-94189788D01*
X128430109Y-94189786D01*
X128555048Y-94017820D01*
X128555047Y-94017820D01*
X128555051Y-94017816D01*
X128651557Y-93828412D01*
X128717246Y-93626243D01*
X128750500Y-93416287D01*
X128750500Y-93203713D01*
X128717246Y-92993757D01*
X128651557Y-92791588D01*
X128555051Y-92602184D01*
X128555049Y-92602181D01*
X128555048Y-92602179D01*
X128430109Y-92430213D01*
X128279786Y-92279890D01*
X128107820Y-92154951D01*
X128107115Y-92154591D01*
X128099054Y-92150485D01*
X128048259Y-92102512D01*
X128031463Y-92034692D01*
X128053999Y-91968556D01*
X128099054Y-91929515D01*
X128107816Y-91925051D01*
X128162572Y-91885269D01*
X128279786Y-91800109D01*
X128279788Y-91800106D01*
X128279792Y-91800104D01*
X128430104Y-91649792D01*
X128430106Y-91649788D01*
X128430109Y-91649786D01*
X128555048Y-91477820D01*
X128555050Y-91477817D01*
X128555051Y-91477816D01*
X128651557Y-91288412D01*
X128717246Y-91086243D01*
X128750500Y-90876287D01*
X128750500Y-90663713D01*
X128717246Y-90453757D01*
X128651557Y-90251588D01*
X128555051Y-90062184D01*
X128555049Y-90062181D01*
X128555048Y-90062179D01*
X128430109Y-89890213D01*
X128279786Y-89739890D01*
X128107820Y-89614951D01*
X128107115Y-89614591D01*
X128099054Y-89610485D01*
X128048259Y-89562512D01*
X128031463Y-89494692D01*
X128053999Y-89428556D01*
X128099054Y-89389515D01*
X128107816Y-89385051D01*
X128194138Y-89322335D01*
X128279786Y-89260109D01*
X128279788Y-89260106D01*
X128279792Y-89260104D01*
X128430104Y-89109792D01*
X128430106Y-89109788D01*
X128430109Y-89109786D01*
X128555048Y-88937820D01*
X128555047Y-88937820D01*
X128555051Y-88937816D01*
X128651557Y-88748412D01*
X128717246Y-88546243D01*
X128750500Y-88336287D01*
X128750500Y-88123713D01*
X128717246Y-87913757D01*
X128651557Y-87711588D01*
X128555051Y-87522184D01*
X128555049Y-87522181D01*
X128555048Y-87522179D01*
X128430109Y-87350213D01*
X128279786Y-87199890D01*
X128107820Y-87074951D01*
X127918414Y-86978444D01*
X127918413Y-86978443D01*
X127918412Y-86978443D01*
X127716243Y-86912754D01*
X127716241Y-86912753D01*
X127716240Y-86912753D01*
X127554957Y-86887208D01*
X127506287Y-86879500D01*
X127293713Y-86879500D01*
X127245042Y-86887208D01*
X127083760Y-86912753D01*
X126881585Y-86978444D01*
X126692179Y-87074951D01*
X126520215Y-87199889D01*
X126406673Y-87313431D01*
X126345350Y-87346915D01*
X126275658Y-87341931D01*
X126219725Y-87300059D01*
X126202810Y-87269082D01*
X126153797Y-87137671D01*
X126153793Y-87137664D01*
X126067547Y-87022455D01*
X126067544Y-87022452D01*
X125952335Y-86936206D01*
X125952328Y-86936202D01*
X125817482Y-86885908D01*
X125817483Y-86885908D01*
X125757883Y-86879501D01*
X125757881Y-86879500D01*
X125757873Y-86879500D01*
X125757864Y-86879500D01*
X123962129Y-86879500D01*
X123962123Y-86879501D01*
X123902516Y-86885908D01*
X123767671Y-86936202D01*
X123767664Y-86936206D01*
X123652455Y-87022452D01*
X123652452Y-87022455D01*
X123566206Y-87137664D01*
X123566202Y-87137671D01*
X123515908Y-87272517D01*
X123509501Y-87332116D01*
X123509500Y-87332135D01*
X123509500Y-89127870D01*
X123509501Y-89127876D01*
X123515908Y-89187483D01*
X123566202Y-89322328D01*
X123566206Y-89322335D01*
X123652452Y-89437544D01*
X123652455Y-89437547D01*
X123767664Y-89523793D01*
X123767671Y-89523797D01*
X123812618Y-89540561D01*
X123902517Y-89574091D01*
X123962127Y-89580500D01*
X123972685Y-89580499D01*
X124039723Y-89600179D01*
X124060372Y-89616818D01*
X124730591Y-90287037D01*
X124667007Y-90304075D01*
X124552993Y-90369901D01*
X124459901Y-90462993D01*
X124394075Y-90577007D01*
X124377037Y-90640591D01*
X123744728Y-90008282D01*
X123744727Y-90008282D01*
X123705380Y-90062439D01*
X123608904Y-90251782D01*
X123543242Y-90453869D01*
X123543242Y-90453872D01*
X123510000Y-90663753D01*
X123510000Y-90876246D01*
X123543242Y-91086127D01*
X123543242Y-91086130D01*
X123608904Y-91288217D01*
X123705375Y-91477550D01*
X123744728Y-91531716D01*
X124377037Y-90899408D01*
X124394075Y-90962993D01*
X124459901Y-91077007D01*
X124552993Y-91170099D01*
X124667007Y-91235925D01*
X124730590Y-91252962D01*
X124098282Y-91885269D01*
X124098282Y-91885270D01*
X124152452Y-91924626D01*
X124152451Y-91924626D01*
X124161495Y-91929234D01*
X124212292Y-91977208D01*
X124229087Y-92045029D01*
X124206550Y-92111164D01*
X124161499Y-92150202D01*
X124152182Y-92154949D01*
X123980213Y-92279890D01*
X123829890Y-92430213D01*
X123704951Y-92602179D01*
X123608444Y-92791585D01*
X123542753Y-92993760D01*
X123509500Y-93203713D01*
X123509500Y-93416286D01*
X123542753Y-93626239D01*
X123608444Y-93828414D01*
X123704951Y-94017820D01*
X123829890Y-94189786D01*
X123980213Y-94340109D01*
X124152182Y-94465050D01*
X124160946Y-94469516D01*
X124211742Y-94517491D01*
X124228536Y-94585312D01*
X124205998Y-94651447D01*
X124160946Y-94690484D01*
X124152182Y-94694949D01*
X123980213Y-94819890D01*
X123829890Y-94970213D01*
X123704951Y-95142179D01*
X123608444Y-95331585D01*
X123542753Y-95533760D01*
X123509500Y-95743713D01*
X123509500Y-95956286D01*
X123542753Y-96166239D01*
X123608444Y-96368414D01*
X123704951Y-96557820D01*
X123829890Y-96729786D01*
X123980213Y-96880109D01*
X124152182Y-97005050D01*
X124160946Y-97009516D01*
X124211742Y-97057491D01*
X124228536Y-97125312D01*
X124205998Y-97191447D01*
X124160946Y-97230484D01*
X124152182Y-97234949D01*
X123980213Y-97359890D01*
X123829890Y-97510213D01*
X123704951Y-97682179D01*
X123608444Y-97871585D01*
X123542753Y-98073760D01*
X123509500Y-98283713D01*
X123509500Y-98496286D01*
X123542753Y-98706239D01*
X123608444Y-98908414D01*
X123704951Y-99097820D01*
X123829890Y-99269786D01*
X123980213Y-99420109D01*
X124152182Y-99545050D01*
X124160946Y-99549516D01*
X124211742Y-99597491D01*
X124228536Y-99665312D01*
X124205998Y-99731447D01*
X124160946Y-99770484D01*
X124152182Y-99774949D01*
X123980213Y-99899890D01*
X123829890Y-100050213D01*
X123704951Y-100222179D01*
X123608444Y-100411585D01*
X123542753Y-100613760D01*
X123509500Y-100823713D01*
X123509500Y-101036286D01*
X123542753Y-101246239D01*
X123608444Y-101448414D01*
X123704951Y-101637820D01*
X123829890Y-101809786D01*
X123980213Y-101960109D01*
X124152182Y-102085050D01*
X124160946Y-102089516D01*
X124211742Y-102137491D01*
X124228536Y-102205312D01*
X124205998Y-102271447D01*
X124160946Y-102310484D01*
X124152182Y-102314949D01*
X123980213Y-102439890D01*
X123829890Y-102590213D01*
X123704951Y-102762179D01*
X123608444Y-102951585D01*
X123542753Y-103153760D01*
X123509500Y-103363713D01*
X123509500Y-103576286D01*
X123542753Y-103786239D01*
X123608444Y-103988414D01*
X123704951Y-104177820D01*
X123829890Y-104349786D01*
X123980213Y-104500109D01*
X124152179Y-104625048D01*
X124152181Y-104625049D01*
X124152184Y-104625051D01*
X124341588Y-104721557D01*
X124453962Y-104758069D01*
X124511637Y-104797507D01*
X124538835Y-104861865D01*
X124526920Y-104930712D01*
X124479676Y-104982187D01*
X124415643Y-105000000D01*
X122627397Y-105000000D01*
X122560358Y-104980315D01*
X122514603Y-104927511D01*
X122503442Y-104872650D01*
X122637841Y-99899890D01*
X122996739Y-86620649D01*
X123018228Y-86554167D01*
X123072249Y-86509855D01*
X123120694Y-86500000D01*
X129376000Y-86500000D01*
X129443039Y-86519685D01*
G37*
%TD.AperFunction*%
%TA.AperFunction,Conductor*%
G36*
X125975270Y-91531717D02*
G01*
X125975270Y-91531716D01*
X126014622Y-91477555D01*
X126019232Y-91468507D01*
X126067205Y-91417709D01*
X126135025Y-91400912D01*
X126201161Y-91423447D01*
X126240204Y-91468504D01*
X126244949Y-91477817D01*
X126369890Y-91649786D01*
X126520213Y-91800109D01*
X126692182Y-91925050D01*
X126700946Y-91929516D01*
X126751742Y-91977491D01*
X126768536Y-92045312D01*
X126745998Y-92111447D01*
X126700946Y-92150484D01*
X126692182Y-92154949D01*
X126520213Y-92279890D01*
X126369890Y-92430213D01*
X126244949Y-92602182D01*
X126240484Y-92610946D01*
X126192509Y-92661742D01*
X126124688Y-92678536D01*
X126058553Y-92655998D01*
X126019516Y-92610946D01*
X126015050Y-92602182D01*
X125890109Y-92430213D01*
X125739786Y-92279890D01*
X125567817Y-92154949D01*
X125558504Y-92150204D01*
X125507707Y-92102230D01*
X125490912Y-92034409D01*
X125513449Y-91968274D01*
X125558507Y-91929232D01*
X125567555Y-91924622D01*
X125621716Y-91885270D01*
X125621717Y-91885270D01*
X124989408Y-91252962D01*
X125052993Y-91235925D01*
X125167007Y-91170099D01*
X125260099Y-91077007D01*
X125325925Y-90962993D01*
X125342962Y-90899408D01*
X125975270Y-91531717D01*
G37*
%TD.AperFunction*%
%TA.AperFunction,Conductor*%
G36*
X126378418Y-89125417D02*
G01*
X126406673Y-89146569D01*
X126520213Y-89260109D01*
X126692182Y-89385050D01*
X126700946Y-89389516D01*
X126751742Y-89437491D01*
X126768536Y-89505312D01*
X126745998Y-89571447D01*
X126700946Y-89610484D01*
X126692182Y-89614949D01*
X126520213Y-89739890D01*
X126369890Y-89890213D01*
X126244949Y-90062182D01*
X126240202Y-90071499D01*
X126192227Y-90122293D01*
X126124405Y-90139087D01*
X126058271Y-90116548D01*
X126019234Y-90071495D01*
X126014626Y-90062452D01*
X125975270Y-90008282D01*
X125975269Y-90008282D01*
X125342962Y-90640590D01*
X125325925Y-90577007D01*
X125260099Y-90462993D01*
X125167007Y-90369901D01*
X125052993Y-90304075D01*
X124989409Y-90287037D01*
X125659627Y-89616818D01*
X125720950Y-89583333D01*
X125747307Y-89580499D01*
X125757872Y-89580499D01*
X125817483Y-89574091D01*
X125952331Y-89523796D01*
X126067546Y-89437546D01*
X126153796Y-89322331D01*
X126202810Y-89190916D01*
X126244681Y-89134984D01*
X126310145Y-89110566D01*
X126378418Y-89125417D01*
G37*
%TD.AperFunction*%
%TD*%
%TA.AperFunction,Conductor*%
%TO.N,/+3V3*%
G36*
X171943039Y-63519685D02*
G01*
X171988794Y-63572489D01*
X172000000Y-63624000D01*
X172000000Y-67876000D01*
X171980315Y-67943039D01*
X171927511Y-67988794D01*
X171876000Y-68000000D01*
X170421714Y-68000000D01*
X170354675Y-67980315D01*
X170308920Y-67927511D01*
X170298976Y-67858353D01*
X170328001Y-67794797D01*
X170334033Y-67788319D01*
X170378286Y-67744066D01*
X170512717Y-67559038D01*
X170616548Y-67355258D01*
X170687222Y-67137745D01*
X170723000Y-66911854D01*
X170723000Y-66588146D01*
X170687222Y-66362255D01*
X170687221Y-66362251D01*
X170687221Y-66362250D01*
X170616549Y-66144744D01*
X170616548Y-66144742D01*
X170512717Y-65940962D01*
X170378286Y-65755934D01*
X170216566Y-65594214D01*
X170031538Y-65459783D01*
X169827755Y-65355950D01*
X169610248Y-65285278D01*
X169424812Y-65255908D01*
X169384354Y-65249500D01*
X169155646Y-65249500D01*
X169115188Y-65255908D01*
X168929753Y-65285278D01*
X168929750Y-65285278D01*
X168712244Y-65355950D01*
X168508461Y-65459783D01*
X168442550Y-65507671D01*
X168323434Y-65594214D01*
X168323432Y-65594216D01*
X168323431Y-65594216D01*
X168161715Y-65755932D01*
X168100318Y-65840438D01*
X168044987Y-65883103D01*
X167975374Y-65889082D01*
X167913579Y-65856476D01*
X167899682Y-65840438D01*
X167888773Y-65825423D01*
X167838286Y-65755934D01*
X167676566Y-65594214D01*
X167491538Y-65459783D01*
X167287755Y-65355950D01*
X167070248Y-65285278D01*
X166884812Y-65255908D01*
X166844354Y-65249500D01*
X166615646Y-65249500D01*
X166575188Y-65255908D01*
X166389753Y-65285278D01*
X166389750Y-65285278D01*
X166172244Y-65355950D01*
X165968461Y-65459783D01*
X165785759Y-65592525D01*
X165719952Y-65616005D01*
X165651898Y-65600180D01*
X165603203Y-65550074D01*
X165596690Y-65535538D01*
X165586296Y-65507669D01*
X165586293Y-65507664D01*
X165500047Y-65392455D01*
X165500044Y-65392452D01*
X165384835Y-65306206D01*
X165384828Y-65306202D01*
X165249982Y-65255908D01*
X165249983Y-65255908D01*
X165190383Y-65249501D01*
X165190381Y-65249500D01*
X165190373Y-65249500D01*
X165190364Y-65249500D01*
X163189629Y-65249500D01*
X163189623Y-65249501D01*
X163130016Y-65255908D01*
X162995171Y-65306202D01*
X162995164Y-65306206D01*
X162879955Y-65392452D01*
X162879952Y-65392455D01*
X162793706Y-65507664D01*
X162793702Y-65507671D01*
X162743408Y-65642517D01*
X162737001Y-65702116D01*
X162737000Y-65702135D01*
X162737000Y-67797870D01*
X162737001Y-67797873D01*
X162743975Y-67862746D01*
X162731568Y-67931506D01*
X162683957Y-67982642D01*
X162620685Y-68000000D01*
X161638541Y-68000000D01*
X161571502Y-67980315D01*
X161525747Y-67927511D01*
X161515299Y-67862306D01*
X161515739Y-67858353D01*
X161987744Y-63610306D01*
X162014712Y-63545851D01*
X162072246Y-63506207D01*
X162110986Y-63500000D01*
X171876000Y-63500000D01*
X171943039Y-63519685D01*
G37*
%TD.AperFunction*%
%TD*%
%TA.AperFunction,Conductor*%
%TO.N,/+3V3*%
G36*
X168943039Y-69519685D02*
G01*
X168988794Y-69572489D01*
X169000000Y-69624000D01*
X169000000Y-73876000D01*
X168980315Y-73943039D01*
X168927511Y-73988794D01*
X168876000Y-74000000D01*
X161624000Y-74000000D01*
X161556961Y-73980315D01*
X161511206Y-73927511D01*
X161500000Y-73876000D01*
X161500000Y-69624000D01*
X161519685Y-69556961D01*
X161572489Y-69511206D01*
X161624000Y-69500000D01*
X168876000Y-69500000D01*
X168943039Y-69519685D01*
G37*
%TD.AperFunction*%
%TD*%
%TA.AperFunction,Conductor*%
%TO.N,/+3V3*%
G36*
X174443039Y-69519685D02*
G01*
X174488794Y-69572489D01*
X174500000Y-69624000D01*
X174500000Y-71376000D01*
X174480315Y-71443039D01*
X174427511Y-71488794D01*
X174376000Y-71500000D01*
X170124000Y-71500000D01*
X170056961Y-71480315D01*
X170011206Y-71427511D01*
X170000000Y-71376000D01*
X170000000Y-69624000D01*
X170019685Y-69556961D01*
X170072489Y-69511206D01*
X170124000Y-69500000D01*
X174376000Y-69500000D01*
X174443039Y-69519685D01*
G37*
%TD.AperFunction*%
%TD*%
%TA.AperFunction,Conductor*%
%TO.N,/+3V3*%
G36*
X168943039Y-75019685D02*
G01*
X168988794Y-75072489D01*
X169000000Y-75124000D01*
X169000000Y-78376000D01*
X168980315Y-78443039D01*
X168927511Y-78488794D01*
X168876000Y-78500000D01*
X161624000Y-78500000D01*
X161556961Y-78480315D01*
X161511206Y-78427511D01*
X161500000Y-78376000D01*
X161500000Y-75124000D01*
X161519685Y-75056961D01*
X161572489Y-75011206D01*
X161624000Y-75000000D01*
X168876000Y-75000000D01*
X168943039Y-75019685D01*
G37*
%TD.AperFunction*%
%TD*%
%TA.AperFunction,Conductor*%
%TO.N,/+3V3*%
G36*
X173943039Y-75019685D02*
G01*
X173988794Y-75072489D01*
X174000000Y-75124000D01*
X174000000Y-77890535D01*
X173980315Y-77957574D01*
X173927511Y-78003329D01*
X173891380Y-78013577D01*
X170139380Y-78482577D01*
X170070417Y-78471360D01*
X170018466Y-78424639D01*
X170000000Y-78359535D01*
X170000000Y-75124000D01*
X170019685Y-75056961D01*
X170072489Y-75011206D01*
X170124000Y-75000000D01*
X173876000Y-75000000D01*
X173943039Y-75019685D01*
G37*
%TD.AperFunction*%
%TD*%
%TA.AperFunction,Conductor*%
%TO.N,/+3V3*%
G36*
X172443039Y-81519685D02*
G01*
X172488794Y-81572489D01*
X172500000Y-81624000D01*
X172500000Y-86376000D01*
X172480315Y-86443039D01*
X172427511Y-86488794D01*
X172376000Y-86500000D01*
X165124000Y-86500000D01*
X165056961Y-86480315D01*
X165011206Y-86427511D01*
X165000000Y-86376000D01*
X165000000Y-81624000D01*
X165019685Y-81556961D01*
X165072489Y-81511206D01*
X165124000Y-81500000D01*
X172376000Y-81500000D01*
X172443039Y-81519685D01*
G37*
%TD.AperFunction*%
%TD*%
%TA.AperFunction,Conductor*%
%TO.N,/+3V3*%
G36*
X138443039Y-63519685D02*
G01*
X138488794Y-63572489D01*
X138500000Y-63624000D01*
X138500000Y-64876000D01*
X138480315Y-64943039D01*
X138427511Y-64988794D01*
X138376000Y-65000000D01*
X135124000Y-65000000D01*
X135056961Y-64980315D01*
X135011206Y-64927511D01*
X135000000Y-64876000D01*
X135000000Y-63624000D01*
X135019685Y-63556961D01*
X135072489Y-63511206D01*
X135124000Y-63500000D01*
X138376000Y-63500000D01*
X138443039Y-63519685D01*
G37*
%TD.AperFunction*%
%TD*%
%TA.AperFunction,Conductor*%
%TO.N,/+3V3*%
G36*
X142943039Y-63519685D02*
G01*
X142988794Y-63572489D01*
X143000000Y-63624000D01*
X143000000Y-64876000D01*
X142980315Y-64943039D01*
X142927511Y-64988794D01*
X142876000Y-65000000D01*
X139624000Y-65000000D01*
X139556961Y-64980315D01*
X139511206Y-64927511D01*
X139500000Y-64876000D01*
X139500000Y-63624000D01*
X139519685Y-63556961D01*
X139572489Y-63511206D01*
X139624000Y-63500000D01*
X142876000Y-63500000D01*
X142943039Y-63519685D01*
G37*
%TD.AperFunction*%
%TD*%
%TA.AperFunction,Conductor*%
%TO.N,/+3V3*%
G36*
X146943039Y-63519685D02*
G01*
X146988794Y-63572489D01*
X147000000Y-63624000D01*
X147000000Y-64876000D01*
X146980315Y-64943039D01*
X146927511Y-64988794D01*
X146876000Y-65000000D01*
X143624000Y-65000000D01*
X143556961Y-64980315D01*
X143511206Y-64927511D01*
X143500000Y-64876000D01*
X143500000Y-63624000D01*
X143519685Y-63556961D01*
X143572489Y-63511206D01*
X143624000Y-63500000D01*
X146876000Y-63500000D01*
X146943039Y-63519685D01*
G37*
%TD.AperFunction*%
%TD*%
%TA.AperFunction,Conductor*%
%TO.N,/+3V3*%
G36*
X151443039Y-63519685D02*
G01*
X151488794Y-63572489D01*
X151500000Y-63624000D01*
X151500000Y-64876000D01*
X151480315Y-64943039D01*
X151427511Y-64988794D01*
X151376000Y-65000000D01*
X148124000Y-65000000D01*
X148056961Y-64980315D01*
X148011206Y-64927511D01*
X148000000Y-64876000D01*
X148000000Y-63624000D01*
X148019685Y-63556961D01*
X148072489Y-63511206D01*
X148124000Y-63500000D01*
X151376000Y-63500000D01*
X151443039Y-63519685D01*
G37*
%TD.AperFunction*%
%TD*%
%TA.AperFunction,Conductor*%
%TO.N,/+3V3*%
G36*
X155943039Y-63519685D02*
G01*
X155988794Y-63572489D01*
X156000000Y-63624000D01*
X156000000Y-64876000D01*
X155980315Y-64943039D01*
X155927511Y-64988794D01*
X155876000Y-65000000D01*
X152624000Y-65000000D01*
X152556961Y-64980315D01*
X152511206Y-64927511D01*
X152500000Y-64876000D01*
X152500000Y-63624000D01*
X152519685Y-63556961D01*
X152572489Y-63511206D01*
X152624000Y-63500000D01*
X155876000Y-63500000D01*
X155943039Y-63519685D01*
G37*
%TD.AperFunction*%
%TD*%
%TA.AperFunction,Conductor*%
%TO.N,/+3V3*%
G36*
X160443039Y-63519685D02*
G01*
X160488794Y-63572489D01*
X160500000Y-63624000D01*
X160500000Y-64876000D01*
X160480315Y-64943039D01*
X160427511Y-64988794D01*
X160376000Y-65000000D01*
X157124000Y-65000000D01*
X157056961Y-64980315D01*
X157011206Y-64927511D01*
X157000000Y-64876000D01*
X157000000Y-63624000D01*
X157019685Y-63556961D01*
X157072489Y-63511206D01*
X157124000Y-63500000D01*
X160376000Y-63500000D01*
X160443039Y-63519685D01*
G37*
%TD.AperFunction*%
%TD*%
%TA.AperFunction,Conductor*%
%TO.N,/+3V3*%
G36*
X137943039Y-66519685D02*
G01*
X137988794Y-66572489D01*
X138000000Y-66624000D01*
X138000000Y-67876000D01*
X137980315Y-67943039D01*
X137927511Y-67988794D01*
X137876000Y-68000000D01*
X134624000Y-68000000D01*
X134556961Y-67980315D01*
X134511206Y-67927511D01*
X134500000Y-67876000D01*
X134500000Y-66624000D01*
X134519685Y-66556961D01*
X134572489Y-66511206D01*
X134624000Y-66500000D01*
X137876000Y-66500000D01*
X137943039Y-66519685D01*
G37*
%TD.AperFunction*%
%TD*%
%TA.AperFunction,Conductor*%
%TO.N,/+3V3*%
G36*
X142443039Y-66519685D02*
G01*
X142488794Y-66572489D01*
X142500000Y-66624000D01*
X142500000Y-67876000D01*
X142480315Y-67943039D01*
X142427511Y-67988794D01*
X142376000Y-68000000D01*
X139124000Y-68000000D01*
X139056961Y-67980315D01*
X139011206Y-67927511D01*
X139000000Y-67876000D01*
X139000000Y-66624000D01*
X139019685Y-66556961D01*
X139072489Y-66511206D01*
X139124000Y-66500000D01*
X142376000Y-66500000D01*
X142443039Y-66519685D01*
G37*
%TD.AperFunction*%
%TD*%
%TA.AperFunction,Conductor*%
%TO.N,/+3V3*%
G36*
X146943039Y-66519685D02*
G01*
X146988794Y-66572489D01*
X147000000Y-66624000D01*
X147000000Y-67876000D01*
X146980315Y-67943039D01*
X146927511Y-67988794D01*
X146876000Y-68000000D01*
X143624000Y-68000000D01*
X143556961Y-67980315D01*
X143511206Y-67927511D01*
X143500000Y-67876000D01*
X143500000Y-66624000D01*
X143519685Y-66556961D01*
X143572489Y-66511206D01*
X143624000Y-66500000D01*
X146876000Y-66500000D01*
X146943039Y-66519685D01*
G37*
%TD.AperFunction*%
%TD*%
%TA.AperFunction,Conductor*%
%TO.N,/+3V3*%
G36*
X151443039Y-66519685D02*
G01*
X151488794Y-66572489D01*
X151500000Y-66624000D01*
X151500000Y-67876000D01*
X151480315Y-67943039D01*
X151427511Y-67988794D01*
X151376000Y-68000000D01*
X148124000Y-68000000D01*
X148056961Y-67980315D01*
X148011206Y-67927511D01*
X148000000Y-67876000D01*
X148000000Y-66624000D01*
X148019685Y-66556961D01*
X148072489Y-66511206D01*
X148124000Y-66500000D01*
X151376000Y-66500000D01*
X151443039Y-66519685D01*
G37*
%TD.AperFunction*%
%TD*%
%TA.AperFunction,Conductor*%
%TO.N,/+3V3*%
G36*
X155943039Y-66519685D02*
G01*
X155988794Y-66572489D01*
X156000000Y-66624000D01*
X156000000Y-67876000D01*
X155980315Y-67943039D01*
X155927511Y-67988794D01*
X155876000Y-68000000D01*
X152624000Y-68000000D01*
X152556961Y-67980315D01*
X152511206Y-67927511D01*
X152500000Y-67876000D01*
X152500000Y-66624000D01*
X152519685Y-66556961D01*
X152572489Y-66511206D01*
X152624000Y-66500000D01*
X155876000Y-66500000D01*
X155943039Y-66519685D01*
G37*
%TD.AperFunction*%
%TD*%
%TA.AperFunction,Conductor*%
%TO.N,/+3V3*%
G36*
X160443039Y-66519685D02*
G01*
X160488794Y-66572489D01*
X160500000Y-66624000D01*
X160500000Y-67876000D01*
X160480315Y-67943039D01*
X160427511Y-67988794D01*
X160376000Y-68000000D01*
X157124000Y-68000000D01*
X157056961Y-67980315D01*
X157011206Y-67927511D01*
X157000000Y-67876000D01*
X157000000Y-66624000D01*
X157019685Y-66556961D01*
X157072489Y-66511206D01*
X157124000Y-66500000D01*
X160376000Y-66500000D01*
X160443039Y-66519685D01*
G37*
%TD.AperFunction*%
%TD*%
%TA.AperFunction,Conductor*%
%TO.N,/+3V3*%
G36*
X138443039Y-69519685D02*
G01*
X138488794Y-69572489D01*
X138500000Y-69624000D01*
X138500000Y-70876000D01*
X138480315Y-70943039D01*
X138427511Y-70988794D01*
X138376000Y-71000000D01*
X135124000Y-71000000D01*
X135056961Y-70980315D01*
X135011206Y-70927511D01*
X135000000Y-70876000D01*
X135000000Y-69624000D01*
X135019685Y-69556961D01*
X135072489Y-69511206D01*
X135124000Y-69500000D01*
X138376000Y-69500000D01*
X138443039Y-69519685D01*
G37*
%TD.AperFunction*%
%TD*%
%TA.AperFunction,Conductor*%
%TO.N,/+3V3*%
G36*
X142443039Y-69519685D02*
G01*
X142488794Y-69572489D01*
X142500000Y-69624000D01*
X142500000Y-70876000D01*
X142480315Y-70943039D01*
X142427511Y-70988794D01*
X142376000Y-71000000D01*
X139124000Y-71000000D01*
X139056961Y-70980315D01*
X139011206Y-70927511D01*
X139000000Y-70876000D01*
X139000000Y-69624000D01*
X139019685Y-69556961D01*
X139072489Y-69511206D01*
X139124000Y-69500000D01*
X142376000Y-69500000D01*
X142443039Y-69519685D01*
G37*
%TD.AperFunction*%
%TD*%
%TA.AperFunction,Conductor*%
%TO.N,/+3V3*%
G36*
X146943039Y-69519685D02*
G01*
X146988794Y-69572489D01*
X147000000Y-69624000D01*
X147000000Y-70876000D01*
X146980315Y-70943039D01*
X146927511Y-70988794D01*
X146876000Y-71000000D01*
X143624000Y-71000000D01*
X143556961Y-70980315D01*
X143511206Y-70927511D01*
X143500000Y-70876000D01*
X143500000Y-69624000D01*
X143519685Y-69556961D01*
X143572489Y-69511206D01*
X143624000Y-69500000D01*
X146876000Y-69500000D01*
X146943039Y-69519685D01*
G37*
%TD.AperFunction*%
%TD*%
%TA.AperFunction,Conductor*%
%TO.N,/+3V3*%
G36*
X151443039Y-69519685D02*
G01*
X151488794Y-69572489D01*
X151500000Y-69624000D01*
X151500000Y-70876000D01*
X151480315Y-70943039D01*
X151427511Y-70988794D01*
X151376000Y-71000000D01*
X148124000Y-71000000D01*
X148056961Y-70980315D01*
X148011206Y-70927511D01*
X148000000Y-70876000D01*
X148000000Y-69624000D01*
X148019685Y-69556961D01*
X148072489Y-69511206D01*
X148124000Y-69500000D01*
X151376000Y-69500000D01*
X151443039Y-69519685D01*
G37*
%TD.AperFunction*%
%TD*%
%TA.AperFunction,Conductor*%
%TO.N,/+3V3*%
G36*
X155943039Y-69519685D02*
G01*
X155988794Y-69572489D01*
X156000000Y-69624000D01*
X156000000Y-70876000D01*
X155980315Y-70943039D01*
X155927511Y-70988794D01*
X155876000Y-71000000D01*
X152624000Y-71000000D01*
X152556961Y-70980315D01*
X152511206Y-70927511D01*
X152500000Y-70876000D01*
X152500000Y-69624000D01*
X152519685Y-69556961D01*
X152572489Y-69511206D01*
X152624000Y-69500000D01*
X155876000Y-69500000D01*
X155943039Y-69519685D01*
G37*
%TD.AperFunction*%
%TD*%
%TA.AperFunction,Conductor*%
%TO.N,/+3V3*%
G36*
X160443039Y-69519685D02*
G01*
X160488794Y-69572489D01*
X160500000Y-69624000D01*
X160500000Y-70876000D01*
X160480315Y-70943039D01*
X160427511Y-70988794D01*
X160376000Y-71000000D01*
X157124000Y-71000000D01*
X157056961Y-70980315D01*
X157011206Y-70927511D01*
X157000000Y-70876000D01*
X157000000Y-69624000D01*
X157019685Y-69556961D01*
X157072489Y-69511206D01*
X157124000Y-69500000D01*
X160376000Y-69500000D01*
X160443039Y-69519685D01*
G37*
%TD.AperFunction*%
%TD*%
%TA.AperFunction,Conductor*%
%TO.N,/+3V3*%
G36*
X138443039Y-72519685D02*
G01*
X138488794Y-72572489D01*
X138500000Y-72624000D01*
X138500000Y-73876000D01*
X138480315Y-73943039D01*
X138427511Y-73988794D01*
X138376000Y-74000000D01*
X135124000Y-74000000D01*
X135056961Y-73980315D01*
X135011206Y-73927511D01*
X135000000Y-73876000D01*
X135000000Y-72624000D01*
X135019685Y-72556961D01*
X135072489Y-72511206D01*
X135124000Y-72500000D01*
X138376000Y-72500000D01*
X138443039Y-72519685D01*
G37*
%TD.AperFunction*%
%TD*%
%TA.AperFunction,Conductor*%
%TO.N,/+3V3*%
G36*
X142443039Y-72519685D02*
G01*
X142488794Y-72572489D01*
X142500000Y-72624000D01*
X142500000Y-73876000D01*
X142480315Y-73943039D01*
X142427511Y-73988794D01*
X142376000Y-74000000D01*
X139124000Y-74000000D01*
X139056961Y-73980315D01*
X139011206Y-73927511D01*
X139000000Y-73876000D01*
X139000000Y-72624000D01*
X139019685Y-72556961D01*
X139072489Y-72511206D01*
X139124000Y-72500000D01*
X142376000Y-72500000D01*
X142443039Y-72519685D01*
G37*
%TD.AperFunction*%
%TD*%
%TA.AperFunction,Conductor*%
%TO.N,/+3V3*%
G36*
X151943039Y-72519685D02*
G01*
X151988794Y-72572489D01*
X152000000Y-72624000D01*
X152000000Y-73876000D01*
X151980315Y-73943039D01*
X151927511Y-73988794D01*
X151876000Y-74000000D01*
X148624000Y-74000000D01*
X148556961Y-73980315D01*
X148511206Y-73927511D01*
X148500000Y-73876000D01*
X148500000Y-72624000D01*
X148519685Y-72556961D01*
X148572489Y-72511206D01*
X148624000Y-72500000D01*
X151876000Y-72500000D01*
X151943039Y-72519685D01*
G37*
%TD.AperFunction*%
%TD*%
%TA.AperFunction,Conductor*%
%TO.N,/+3V3*%
G36*
X156443039Y-72519685D02*
G01*
X156488794Y-72572489D01*
X156500000Y-72624000D01*
X156500000Y-73876000D01*
X156480315Y-73943039D01*
X156427511Y-73988794D01*
X156376000Y-74000000D01*
X153124000Y-74000000D01*
X153056961Y-73980315D01*
X153011206Y-73927511D01*
X153000000Y-73876000D01*
X153000000Y-72624000D01*
X153019685Y-72556961D01*
X153072489Y-72511206D01*
X153124000Y-72500000D01*
X156376000Y-72500000D01*
X156443039Y-72519685D01*
G37*
%TD.AperFunction*%
%TD*%
%TA.AperFunction,Conductor*%
%TO.N,/+3V3*%
G36*
X160443039Y-72519685D02*
G01*
X160488794Y-72572489D01*
X160500000Y-72624000D01*
X160500000Y-73876000D01*
X160480315Y-73943039D01*
X160427511Y-73988794D01*
X160376000Y-74000000D01*
X157124000Y-74000000D01*
X157056961Y-73980315D01*
X157011206Y-73927511D01*
X157000000Y-73876000D01*
X157000000Y-72624000D01*
X157019685Y-72556961D01*
X157072489Y-72511206D01*
X157124000Y-72500000D01*
X160376000Y-72500000D01*
X160443039Y-72519685D01*
G37*
%TD.AperFunction*%
%TD*%
%TA.AperFunction,Conductor*%
%TO.N,/+3V3*%
G36*
X151943039Y-75519685D02*
G01*
X151988794Y-75572489D01*
X152000000Y-75624000D01*
X152000000Y-76876000D01*
X151980315Y-76943039D01*
X151927511Y-76988794D01*
X151876000Y-77000000D01*
X148624000Y-77000000D01*
X148556961Y-76980315D01*
X148511206Y-76927511D01*
X148500000Y-76876000D01*
X148500000Y-75624000D01*
X148519685Y-75556961D01*
X148572489Y-75511206D01*
X148624000Y-75500000D01*
X151876000Y-75500000D01*
X151943039Y-75519685D01*
G37*
%TD.AperFunction*%
%TD*%
%TA.AperFunction,Conductor*%
%TO.N,/+3V3*%
G36*
X155943039Y-75519685D02*
G01*
X155988794Y-75572489D01*
X156000000Y-75624000D01*
X156000000Y-76876000D01*
X155980315Y-76943039D01*
X155927511Y-76988794D01*
X155876000Y-77000000D01*
X152624000Y-77000000D01*
X152556961Y-76980315D01*
X152511206Y-76927511D01*
X152500000Y-76876000D01*
X152500000Y-75624000D01*
X152519685Y-75556961D01*
X152572489Y-75511206D01*
X152624000Y-75500000D01*
X155876000Y-75500000D01*
X155943039Y-75519685D01*
G37*
%TD.AperFunction*%
%TD*%
%TA.AperFunction,Conductor*%
%TO.N,/+3V3*%
G36*
X138443039Y-75519685D02*
G01*
X138488794Y-75572489D01*
X138500000Y-75624000D01*
X138500000Y-76876000D01*
X138480315Y-76943039D01*
X138427511Y-76988794D01*
X138376000Y-77000000D01*
X135124000Y-77000000D01*
X135056961Y-76980315D01*
X135011206Y-76927511D01*
X135000000Y-76876000D01*
X135000000Y-75624000D01*
X135019685Y-75556961D01*
X135072489Y-75511206D01*
X135124000Y-75500000D01*
X138376000Y-75500000D01*
X138443039Y-75519685D01*
G37*
%TD.AperFunction*%
%TD*%
%TA.AperFunction,Conductor*%
%TO.N,/+3V3*%
G36*
X142943039Y-75519685D02*
G01*
X142988794Y-75572489D01*
X143000000Y-75624000D01*
X143000000Y-76876000D01*
X142980315Y-76943039D01*
X142927511Y-76988794D01*
X142876000Y-77000000D01*
X139624000Y-77000000D01*
X139556961Y-76980315D01*
X139511206Y-76927511D01*
X139500000Y-76876000D01*
X139500000Y-75624000D01*
X139519685Y-75556961D01*
X139572489Y-75511206D01*
X139624000Y-75500000D01*
X142876000Y-75500000D01*
X142943039Y-75519685D01*
G37*
%TD.AperFunction*%
%TD*%
%TA.AperFunction,Conductor*%
%TO.N,/+3V3*%
G36*
X138443039Y-78519685D02*
G01*
X138488794Y-78572489D01*
X138500000Y-78624000D01*
X138500000Y-79876000D01*
X138480315Y-79943039D01*
X138427511Y-79988794D01*
X138376000Y-80000000D01*
X135124000Y-80000000D01*
X135056961Y-79980315D01*
X135011206Y-79927511D01*
X135000000Y-79876000D01*
X135000000Y-78624000D01*
X135019685Y-78556961D01*
X135072489Y-78511206D01*
X135124000Y-78500000D01*
X138376000Y-78500000D01*
X138443039Y-78519685D01*
G37*
%TD.AperFunction*%
%TD*%
%TA.AperFunction,Conductor*%
%TO.N,/+3V3*%
G36*
X142943039Y-78519685D02*
G01*
X142988794Y-78572489D01*
X143000000Y-78624000D01*
X143000000Y-79876000D01*
X142980315Y-79943039D01*
X142927511Y-79988794D01*
X142876000Y-80000000D01*
X139624000Y-80000000D01*
X139556961Y-79980315D01*
X139511206Y-79927511D01*
X139500000Y-79876000D01*
X139500000Y-78624000D01*
X139519685Y-78556961D01*
X139572489Y-78511206D01*
X139624000Y-78500000D01*
X142876000Y-78500000D01*
X142943039Y-78519685D01*
G37*
%TD.AperFunction*%
%TD*%
%TA.AperFunction,Conductor*%
%TO.N,/+3V3*%
G36*
X139943039Y-82519685D02*
G01*
X139988794Y-82572489D01*
X140000000Y-82624000D01*
X140000000Y-84000000D01*
X135000000Y-84000000D01*
X135000000Y-82624000D01*
X135019685Y-82556961D01*
X135072489Y-82511206D01*
X135124000Y-82500000D01*
X139876000Y-82500000D01*
X139943039Y-82519685D01*
G37*
%TD.AperFunction*%
%TD*%
%TA.AperFunction,Conductor*%
%TO.N,/+3V3*%
G36*
X140000000Y-85376000D02*
G01*
X139980315Y-85443039D01*
X139927511Y-85488794D01*
X139876000Y-85500000D01*
X135124000Y-85500000D01*
X135056961Y-85480315D01*
X135011206Y-85427511D01*
X135000000Y-85376000D01*
X135000000Y-84000000D01*
X140000000Y-84000000D01*
X140000000Y-85376000D01*
G37*
%TD.AperFunction*%
%TD*%
%TA.AperFunction,Conductor*%
%TO.N,/+3V3*%
G36*
X139943039Y-86019685D02*
G01*
X139988794Y-86072489D01*
X140000000Y-86124000D01*
X140000000Y-87500000D01*
X135000000Y-87500000D01*
X135000000Y-86124000D01*
X135019685Y-86056961D01*
X135072489Y-86011206D01*
X135124000Y-86000000D01*
X139876000Y-86000000D01*
X139943039Y-86019685D01*
G37*
%TD.AperFunction*%
%TD*%
%TA.AperFunction,Conductor*%
%TO.N,/+3V3*%
G36*
X140000000Y-89000000D02*
G01*
X135000000Y-89000000D01*
X135000000Y-87500000D01*
X140000000Y-87500000D01*
X140000000Y-89000000D01*
G37*
%TD.AperFunction*%
%TD*%
%TA.AperFunction,Conductor*%
%TO.N,/+3V3*%
G36*
X140000000Y-90376000D02*
G01*
X139980315Y-90443039D01*
X139927511Y-90488794D01*
X139876000Y-90500000D01*
X135124000Y-90500000D01*
X135056961Y-90480315D01*
X135011206Y-90427511D01*
X135000000Y-90376000D01*
X135000000Y-89000000D01*
X140000000Y-89000000D01*
X140000000Y-90376000D01*
G37*
%TD.AperFunction*%
%TD*%
%TA.AperFunction,Conductor*%
%TO.N,/+3V3*%
G36*
X133943039Y-63019685D02*
G01*
X133988794Y-63072489D01*
X134000000Y-63124000D01*
X134000000Y-73376000D01*
X133980315Y-73443039D01*
X133927511Y-73488794D01*
X133876000Y-73500000D01*
X123124000Y-73500000D01*
X123056961Y-73480315D01*
X123011206Y-73427511D01*
X123000000Y-73376000D01*
X123000000Y-67799983D01*
X124604146Y-67799983D01*
X124604146Y-69400001D01*
X124604147Y-69400018D01*
X124614646Y-69502796D01*
X124614647Y-69502799D01*
X124639405Y-69577512D01*
X124669832Y-69669334D01*
X124761934Y-69818656D01*
X124885990Y-69942712D01*
X125035312Y-70034814D01*
X125201849Y-70089999D01*
X125304637Y-70100500D01*
X126904654Y-70100499D01*
X127007443Y-70089999D01*
X127173980Y-70034814D01*
X127323302Y-69942712D01*
X127447358Y-69818656D01*
X127539460Y-69669334D01*
X127594645Y-69502797D01*
X127605146Y-69400009D01*
X127605145Y-68481902D01*
X129604146Y-68481902D01*
X129604146Y-68718097D01*
X129641092Y-68951368D01*
X129714079Y-69175996D01*
X129821303Y-69386433D01*
X129960129Y-69577510D01*
X130127136Y-69744517D01*
X130318213Y-69883343D01*
X130417637Y-69934002D01*
X130528649Y-69990566D01*
X130528651Y-69990566D01*
X130528654Y-69990568D01*
X130649058Y-70029689D01*
X130753277Y-70063553D01*
X130986549Y-70100500D01*
X130986554Y-70100500D01*
X131222743Y-70100500D01*
X131456014Y-70063553D01*
X131680638Y-69990568D01*
X131891079Y-69883343D01*
X132082156Y-69744517D01*
X132249163Y-69577510D01*
X132387989Y-69386433D01*
X132495214Y-69175992D01*
X132568199Y-68951368D01*
X132605146Y-68718097D01*
X132605146Y-68481902D01*
X132568199Y-68248631D01*
X132495212Y-68024003D01*
X132387988Y-67813566D01*
X132249163Y-67622490D01*
X132082156Y-67455483D01*
X131891079Y-67316657D01*
X131680642Y-67209433D01*
X131456014Y-67136446D01*
X131222743Y-67099500D01*
X131222738Y-67099500D01*
X130986554Y-67099500D01*
X130986549Y-67099500D01*
X130753277Y-67136446D01*
X130528649Y-67209433D01*
X130318212Y-67316657D01*
X130229182Y-67381342D01*
X130127136Y-67455483D01*
X130127134Y-67455485D01*
X130127133Y-67455485D01*
X129960131Y-67622487D01*
X129960131Y-67622488D01*
X129960129Y-67622490D01*
X129905849Y-67697200D01*
X129821303Y-67813566D01*
X129714079Y-68024003D01*
X129641092Y-68248631D01*
X129604146Y-68481902D01*
X127605145Y-68481902D01*
X127605145Y-67799992D01*
X127594645Y-67697203D01*
X127539460Y-67530666D01*
X127447358Y-67381344D01*
X127323302Y-67257288D01*
X127173980Y-67165186D01*
X127007443Y-67110001D01*
X127007441Y-67110000D01*
X126904656Y-67099500D01*
X125304644Y-67099500D01*
X125304627Y-67099501D01*
X125201849Y-67110000D01*
X125201846Y-67110001D01*
X125035314Y-67165185D01*
X125035309Y-67165187D01*
X124885988Y-67257289D01*
X124761935Y-67381342D01*
X124669833Y-67530663D01*
X124669832Y-67530666D01*
X124614647Y-67697203D01*
X124614647Y-67697204D01*
X124614646Y-67697204D01*
X124604146Y-67799983D01*
X123000000Y-67799983D01*
X123000000Y-63124000D01*
X123019685Y-63056961D01*
X123072489Y-63011206D01*
X123124000Y-63000000D01*
X133876000Y-63000000D01*
X133943039Y-63019685D01*
G37*
%TD.AperFunction*%
%TD*%
%TA.AperFunction,Conductor*%
%TO.N,/+3V3*%
G36*
X133943039Y-75019685D02*
G01*
X133988794Y-75072489D01*
X134000000Y-75124000D01*
X134000000Y-85376000D01*
X133980315Y-85443039D01*
X133927511Y-85488794D01*
X133876000Y-85500000D01*
X123124000Y-85500000D01*
X123056961Y-85480315D01*
X123011206Y-85427511D01*
X123000000Y-85376000D01*
X123000000Y-79349983D01*
X124604146Y-79349983D01*
X124604146Y-80950001D01*
X124604147Y-80950018D01*
X124614646Y-81052796D01*
X124614647Y-81052799D01*
X124639405Y-81127512D01*
X124669832Y-81219334D01*
X124761934Y-81368656D01*
X124885990Y-81492712D01*
X125035312Y-81584814D01*
X125201849Y-81639999D01*
X125304637Y-81650500D01*
X126904654Y-81650499D01*
X127007443Y-81639999D01*
X127173980Y-81584814D01*
X127323302Y-81492712D01*
X127447358Y-81368656D01*
X127539460Y-81219334D01*
X127594645Y-81052797D01*
X127605146Y-80950009D01*
X127605145Y-80031902D01*
X129604146Y-80031902D01*
X129604146Y-80268097D01*
X129641092Y-80501368D01*
X129714079Y-80725996D01*
X129821303Y-80936433D01*
X129960129Y-81127510D01*
X130127136Y-81294517D01*
X130318213Y-81433343D01*
X130417637Y-81484002D01*
X130528649Y-81540566D01*
X130528651Y-81540566D01*
X130528654Y-81540568D01*
X130649058Y-81579689D01*
X130753277Y-81613553D01*
X130986549Y-81650500D01*
X130986554Y-81650500D01*
X131222743Y-81650500D01*
X131456014Y-81613553D01*
X131680638Y-81540568D01*
X131891079Y-81433343D01*
X132082156Y-81294517D01*
X132249163Y-81127510D01*
X132387989Y-80936433D01*
X132495214Y-80725992D01*
X132568199Y-80501368D01*
X132605146Y-80268097D01*
X132605146Y-80031902D01*
X132568199Y-79798631D01*
X132495212Y-79574003D01*
X132387988Y-79363566D01*
X132249163Y-79172490D01*
X132082156Y-79005483D01*
X131891079Y-78866657D01*
X131680642Y-78759433D01*
X131456014Y-78686446D01*
X131222743Y-78649500D01*
X131222738Y-78649500D01*
X130986554Y-78649500D01*
X130986549Y-78649500D01*
X130753277Y-78686446D01*
X130528649Y-78759433D01*
X130318212Y-78866657D01*
X130229182Y-78931342D01*
X130127136Y-79005483D01*
X130127134Y-79005485D01*
X130127133Y-79005485D01*
X129960131Y-79172487D01*
X129960131Y-79172488D01*
X129960129Y-79172490D01*
X129905849Y-79247200D01*
X129821303Y-79363566D01*
X129714079Y-79574003D01*
X129641092Y-79798631D01*
X129604146Y-80031902D01*
X127605145Y-80031902D01*
X127605145Y-79349992D01*
X127594645Y-79247203D01*
X127539460Y-79080666D01*
X127447358Y-78931344D01*
X127323302Y-78807288D01*
X127173980Y-78715186D01*
X127007443Y-78660001D01*
X127007441Y-78660000D01*
X126904656Y-78649500D01*
X125304644Y-78649500D01*
X125304627Y-78649501D01*
X125201849Y-78660000D01*
X125201846Y-78660001D01*
X125035314Y-78715185D01*
X125035309Y-78715187D01*
X124885988Y-78807289D01*
X124761935Y-78931342D01*
X124669833Y-79080663D01*
X124669832Y-79080666D01*
X124614647Y-79247203D01*
X124614647Y-79247204D01*
X124614646Y-79247204D01*
X124604146Y-79349983D01*
X123000000Y-79349983D01*
X123000000Y-75124000D01*
X123019685Y-75056961D01*
X123072489Y-75011206D01*
X123124000Y-75000000D01*
X133876000Y-75000000D01*
X133943039Y-75019685D01*
G37*
%TD.AperFunction*%
%TD*%
M02*
